<svg width="1440" height="238" viewBox="0 0 1440 238" fill="none" xmlns="http://www.w3.org/2000/svg">
<path d="M243.514 216.516C145.368 236.748 0 127.188 0 127.188V0H1453V127.188C1453 127.188 1368.6 110.818 1317.6 127.188C1257.33 146.535 1243.49 207.516 1184.23 230.713C1052.74 282.176 969.518 41.757 844.215 111.216C820.964 124.104 817.215 170.17 791.5 171C764.61 171.868 756.329 155.784 729.5 153.5C693.26 150.414 690.276 172.313 656.5 188C564.565 230.697 500.318 86.649 403.667 111.216C333.571 129.033 314.157 201.953 243.514 216.516Z" fill="#FB758E"/>
<path d="M581.125 29.279C574.956 33.9808 570.503 43.3154 570.503 43.3154L583.022 31.5553L605.783 23.5887C605.783 23.5887 588.945 23.3187 581.125 29.279Z" fill="#EED6DD" stroke="#EFD7DE"/>
<mask id="path-3-outside-1_19_272" maskUnits="userSpaceOnUse" x="619.199" y="82.5958" width="162" height="55" fill="black">
<rect fill="white" x="619.199" y="82.5958" width="162" height="55"/>
<path d="M643.299 136.346V127.596C639.939 129.976 636.229 135.366 630.139 135.366C624.819 135.366 620.899 131.656 620.899 126.336C620.899 114.926 636.859 116.676 636.859 113.876C636.859 113.176 636.089 113.106 635.529 113.106C632.309 113.106 625.029 115.066 625.029 108.906C625.029 103.376 634.339 98.8958 640.639 98.8958C647.009 98.8958 651.629 101.626 651.699 108.346V125.846C651.699 128.506 653.449 130.256 656.109 130.256H656.459V131.656C654.079 131.656 647.919 131.656 643.999 136.346H643.299ZM643.299 125.986V108.486C643.299 98.4058 631.679 99.4558 631.679 105.896C631.679 112.406 638.259 111.146 638.259 113.736C638.259 114.786 637.629 115.556 636.579 116.116C633.919 117.446 629.229 118.076 629.229 123.186C629.229 126.616 631.259 128.926 634.899 128.926C638.889 128.926 641.339 127.456 643.299 125.986ZM654.784 100.996V99.5958H655.764C662.204 99.5958 665.424 95.3958 666.054 88.5358H667.454V99.5958H676.694V100.996H667.454V124.936C667.454 129.766 668.224 132.916 672.144 132.916C674.734 132.916 676.624 131.866 679.004 128.926L679.914 129.766C678.094 132.846 675.014 135.366 670.114 135.366C661.434 135.366 659.054 130.466 659.054 122.906V100.996H654.784ZM708.38 123.816L709.15 124.166C706.56 131.376 699.63 135.296 693.61 135.296C672.19 135.296 671 98.8958 694.1 98.8958C701.8 98.8958 708.94 102.046 709.01 109.046H685.35C683.74 117.516 688.22 129.066 699.35 129.066C702.92 129.066 706.35 127.316 708.38 123.816ZM685.63 107.646H701.03C700.68 103.376 699.07 100.296 694.17 100.296C689.69 100.296 686.82 103.446 685.63 107.646ZM714.928 128.506V94.9058C714.928 92.2458 713.178 90.4958 710.518 90.4958H710.168V89.0958C712.548 89.0958 718.708 89.0958 722.628 84.4058H723.328V128.506C723.328 131.306 725.218 133.196 728.018 133.196H728.088V134.596H710.168V133.196H710.238C713.038 133.196 714.928 131.306 714.928 128.506ZM733.242 91.2658C733.242 88.5358 735.062 86.7158 737.792 86.7158C740.522 86.7158 742.342 88.5358 742.342 91.2658C742.342 93.9958 740.522 95.8158 737.792 95.8158C735.062 95.8158 733.242 93.9958 733.242 91.2658ZM733.522 128.506V108.346C733.522 105.686 731.772 103.936 729.112 103.936H728.762V102.536C731.142 102.536 737.302 102.536 741.222 97.8458H741.922V128.506C741.922 131.306 743.812 133.196 746.612 133.196H746.682V134.596H728.762V133.196H728.832C731.632 133.196 733.522 131.306 733.522 128.506ZM778.995 123.816L779.765 124.166C777.175 131.376 770.245 135.296 764.225 135.296C742.805 135.296 741.615 98.8958 764.715 98.8958C772.415 98.8958 779.555 102.046 779.625 109.046H755.965C754.355 117.516 758.835 129.066 769.965 129.066C773.535 129.066 776.965 127.316 778.995 123.816ZM756.245 107.646H771.645C771.295 103.376 769.685 100.296 764.785 100.296C760.305 100.296 757.435 103.446 756.245 107.646Z"/>
</mask>
<path d="M643.299 136.346V127.596C639.939 129.976 636.229 135.366 630.139 135.366C624.819 135.366 620.899 131.656 620.899 126.336C620.899 114.926 636.859 116.676 636.859 113.876C636.859 113.176 636.089 113.106 635.529 113.106C632.309 113.106 625.029 115.066 625.029 108.906C625.029 103.376 634.339 98.8958 640.639 98.8958C647.009 98.8958 651.629 101.626 651.699 108.346V125.846C651.699 128.506 653.449 130.256 656.109 130.256H656.459V131.656C654.079 131.656 647.919 131.656 643.999 136.346H643.299ZM643.299 125.986V108.486C643.299 98.4058 631.679 99.4558 631.679 105.896C631.679 112.406 638.259 111.146 638.259 113.736C638.259 114.786 637.629 115.556 636.579 116.116C633.919 117.446 629.229 118.076 629.229 123.186C629.229 126.616 631.259 128.926 634.899 128.926C638.889 128.926 641.339 127.456 643.299 125.986ZM654.784 100.996V99.5958H655.764C662.204 99.5958 665.424 95.3958 666.054 88.5358H667.454V99.5958H676.694V100.996H667.454V124.936C667.454 129.766 668.224 132.916 672.144 132.916C674.734 132.916 676.624 131.866 679.004 128.926L679.914 129.766C678.094 132.846 675.014 135.366 670.114 135.366C661.434 135.366 659.054 130.466 659.054 122.906V100.996H654.784ZM708.38 123.816L709.15 124.166C706.56 131.376 699.63 135.296 693.61 135.296C672.19 135.296 671 98.8958 694.1 98.8958C701.8 98.8958 708.94 102.046 709.01 109.046H685.35C683.74 117.516 688.22 129.066 699.35 129.066C702.92 129.066 706.35 127.316 708.38 123.816ZM685.63 107.646H701.03C700.68 103.376 699.07 100.296 694.17 100.296C689.69 100.296 686.82 103.446 685.63 107.646ZM714.928 128.506V94.9058C714.928 92.2458 713.178 90.4958 710.518 90.4958H710.168V89.0958C712.548 89.0958 718.708 89.0958 722.628 84.4058H723.328V128.506C723.328 131.306 725.218 133.196 728.018 133.196H728.088V134.596H710.168V133.196H710.238C713.038 133.196 714.928 131.306 714.928 128.506ZM733.242 91.2658C733.242 88.5358 735.062 86.7158 737.792 86.7158C740.522 86.7158 742.342 88.5358 742.342 91.2658C742.342 93.9958 740.522 95.8158 737.792 95.8158C735.062 95.8158 733.242 93.9958 733.242 91.2658ZM733.522 128.506V108.346C733.522 105.686 731.772 103.936 729.112 103.936H728.762V102.536C731.142 102.536 737.302 102.536 741.222 97.8458H741.922V128.506C741.922 131.306 743.812 133.196 746.612 133.196H746.682V134.596H728.762V133.196H728.832C731.632 133.196 733.522 131.306 733.522 128.506ZM778.995 123.816L779.765 124.166C777.175 131.376 770.245 135.296 764.225 135.296C742.805 135.296 741.615 98.8958 764.715 98.8958C772.415 98.8958 779.555 102.046 779.625 109.046H755.965C754.355 117.516 758.835 129.066 769.965 129.066C773.535 129.066 776.965 127.316 778.995 123.816ZM756.245 107.646H771.645C771.295 103.376 769.685 100.296 764.785 100.296C760.305 100.296 757.435 103.446 756.245 107.646Z" fill="#FFF8F9"/>
<path d="M643.299 136.346H642.299V137.346H643.299V136.346ZM643.299 127.596H644.299V125.662L642.721 126.78L643.299 127.596ZM651.699 108.346H652.699L652.699 108.335L651.699 108.346ZM656.459 130.256H657.459V129.256H656.459V130.256ZM656.459 131.656V132.656H657.459V131.656H656.459ZM643.999 136.346V137.346H644.466L644.766 136.987L643.999 136.346ZM643.299 125.986L643.899 126.786L644.299 126.486V125.986H643.299ZM636.579 116.116L637.026 117.01L637.038 117.004L637.049 116.998L636.579 116.116ZM643.299 136.346H644.299V127.596H643.299H642.299V136.346H643.299ZM643.299 127.596L642.721 126.78C641.82 127.418 640.912 128.245 640.005 129.077C639.082 129.924 638.144 130.792 637.127 131.585C635.1 133.166 632.865 134.366 630.139 134.366V135.366V136.366C633.502 136.366 636.167 134.87 638.358 133.162C639.45 132.31 640.449 131.384 641.357 130.551C642.282 129.702 643.097 128.964 643.877 128.412L643.299 127.596ZM630.139 135.366V134.366C625.34 134.366 621.899 131.073 621.899 126.336H620.899H619.899C619.899 132.238 624.297 136.366 630.139 136.366V135.366ZM620.899 126.336H621.899C621.899 123.749 622.79 121.975 624.097 120.679C625.435 119.352 627.262 118.474 629.197 117.825C631.164 117.165 633.034 116.799 634.628 116.364C635.38 116.159 636.107 115.928 636.659 115.621C637.183 115.33 637.859 114.792 637.859 113.876H636.859H635.859C635.859 113.66 636.035 113.68 635.687 113.873C635.366 114.052 634.846 114.232 634.102 114.435C632.704 114.816 630.583 115.25 628.561 115.929C626.506 116.619 624.343 117.618 622.688 119.259C621.002 120.932 619.899 123.218 619.899 126.336H620.899ZM636.859 113.876H637.859C637.859 113.505 637.752 113.149 637.522 112.85C637.301 112.563 637.019 112.397 636.775 112.3C636.319 112.117 635.815 112.106 635.529 112.106V113.106V114.106C635.651 114.106 635.761 114.11 635.858 114.121C635.958 114.133 636.012 114.149 636.032 114.157C636.051 114.164 635.996 114.147 635.938 114.071C635.908 114.032 635.886 113.989 635.873 113.948C635.86 113.907 635.859 113.881 635.859 113.876H636.859ZM635.529 113.106V112.106C634.673 112.106 633.524 112.236 632.453 112.319C631.329 112.405 630.202 112.45 629.196 112.324C628.185 112.196 627.413 111.909 626.898 111.429C626.413 110.978 626.029 110.236 626.029 108.906H625.029H624.029C624.029 110.655 624.554 111.979 625.535 112.893C626.486 113.778 627.735 114.155 628.946 114.308C630.163 114.461 631.46 114.401 632.607 114.313C633.806 114.22 634.775 114.106 635.529 114.106V113.106ZM625.029 108.906H626.029C626.029 106.707 627.927 104.463 630.974 102.692C633.957 100.957 637.688 99.8958 640.639 99.8958V98.8958V97.8958C637.289 97.8958 633.215 99.0748 629.969 100.963C626.786 102.813 624.029 105.574 624.029 108.906H625.029ZM640.639 98.8958V99.8958C643.702 99.8958 646.199 100.555 647.918 101.891C649.596 103.194 650.666 105.246 650.699 108.356L651.699 108.346L652.699 108.335C652.661 104.726 651.386 102.052 649.145 100.311C646.944 98.6013 643.945 97.8958 640.639 97.8958V98.8958ZM651.699 108.346H650.699V125.846H651.699H652.699V108.346H651.699ZM651.699 125.846H650.699C650.699 127.4 651.214 128.771 652.199 129.755C653.184 130.74 654.555 131.256 656.109 131.256V130.256V129.256C655.003 129.256 654.168 128.896 653.613 128.341C653.058 127.786 652.699 126.952 652.699 125.846H651.699ZM656.109 130.256V131.256H656.459V130.256V129.256H656.109V130.256ZM656.459 130.256H655.459V131.656H656.459H657.459V130.256H656.459ZM656.459 131.656V130.656C654.118 130.656 647.484 130.617 643.231 135.705L643.999 136.346L644.766 136.987C648.354 132.695 654.039 132.656 656.459 132.656V131.656ZM643.999 136.346V135.346H643.299V136.346V137.346H643.999V136.346ZM643.299 125.986H644.299V108.486H643.299H642.299V125.986H643.299ZM643.299 108.486H644.299C644.299 105.77 643.512 103.692 642.229 102.257C640.948 100.825 639.243 100.11 637.555 99.998C634.259 99.7796 630.679 101.927 630.679 105.896H631.679H632.679C632.679 103.425 634.909 101.827 637.423 101.994C638.64 102.074 639.839 102.584 640.738 103.59C641.633 104.591 642.299 106.162 642.299 108.486H643.299ZM631.679 105.896H630.679C630.679 107.703 631.14 109.061 631.902 110.096C632.652 111.116 633.634 111.736 634.522 112.18C634.963 112.401 635.403 112.588 635.779 112.751C636.17 112.921 636.483 113.06 636.739 113.205C637.258 113.497 637.259 113.643 637.259 113.736H638.259H639.259C639.259 112.534 638.437 111.866 637.722 111.463C637.361 111.259 636.954 111.081 636.574 110.916C636.179 110.745 635.797 110.582 635.416 110.391C634.659 110.013 633.995 109.566 633.512 108.91C633.04 108.269 632.679 107.343 632.679 105.896H631.679ZM638.259 113.736H637.259C637.259 114.284 636.969 114.775 636.108 115.233L636.579 116.116L637.049 116.998C638.289 116.337 639.259 115.287 639.259 113.736H638.259ZM636.579 116.116L636.132 115.221C635.516 115.529 634.795 115.791 633.936 116.135C633.112 116.465 632.203 116.856 631.367 117.391C630.525 117.93 629.728 118.631 629.147 119.596C628.561 120.567 628.229 121.747 628.229 123.186H629.229H630.229C630.229 122.069 630.482 121.254 630.86 120.629C631.24 119.997 631.783 119.499 632.445 119.076C633.114 118.648 633.877 118.313 634.68 117.991C635.449 117.683 636.312 117.367 637.026 117.01L636.579 116.116ZM629.229 123.186H628.229C628.229 125.095 628.796 126.8 629.976 128.033C631.162 129.273 632.861 129.926 634.899 129.926V128.926V127.926C633.296 127.926 632.16 127.423 631.421 126.651C630.676 125.872 630.229 124.706 630.229 123.186H629.229ZM634.899 128.926V129.926C639.187 129.926 641.845 128.326 643.899 126.786L643.299 125.986L642.699 125.186C640.833 126.585 638.591 127.926 634.899 127.926V128.926ZM654.784 100.996H653.784V101.996H654.784V100.996ZM654.784 99.5958V98.5958H653.784V99.5958H654.784ZM666.054 88.5358V87.5358H665.141L665.058 88.4444L666.054 88.5358ZM667.454 88.5358H668.454V87.5358H667.454V88.5358ZM667.454 99.5958H666.454V100.596H667.454V99.5958ZM676.694 99.5958H677.694V98.5958H676.694V99.5958ZM676.694 100.996V101.996H677.694V100.996H676.694ZM667.454 100.996V99.9958H666.454V100.996H667.454ZM679.004 128.926L679.682 128.191L678.898 127.467L678.226 128.297L679.004 128.926ZM679.914 129.766L680.775 130.275L681.186 129.579L680.592 129.031L679.914 129.766ZM659.054 100.996H660.054V99.9958H659.054V100.996ZM654.784 100.996H655.784V99.5958H654.784H653.784V100.996H654.784ZM654.784 99.5958V100.596H655.764V99.5958V98.5958H654.784V99.5958ZM655.764 99.5958V100.596C659.22 100.596 661.927 99.4576 663.836 97.3012C665.718 95.1761 666.724 92.1757 667.049 88.6273L666.054 88.5358L665.058 88.4444C664.754 91.756 663.835 94.2856 662.339 95.9755C660.87 97.6341 658.747 98.5958 655.764 98.5958V99.5958ZM666.054 88.5358V89.5358H667.454V88.5358V87.5358H666.054V88.5358ZM667.454 88.5358H666.454V99.5958H667.454H668.454V88.5358H667.454ZM667.454 99.5958V100.596H676.694V99.5958V98.5958H667.454V99.5958ZM676.694 99.5958H675.694V100.996H676.694H677.694V99.5958H676.694ZM676.694 100.996V99.9958H667.454V100.996V101.996H676.694V100.996ZM667.454 100.996H666.454V124.936H667.454H668.454V100.996H667.454ZM667.454 124.936H666.454C666.454 127.353 666.637 129.559 667.431 131.178C667.842 132.015 668.427 132.721 669.246 133.208C670.059 133.691 671.03 133.916 672.144 133.916V132.916V131.916C671.297 131.916 670.702 131.746 670.268 131.489C669.84 131.234 669.498 130.85 669.226 130.297C668.656 129.133 668.454 127.349 668.454 124.936H667.454ZM672.144 132.916V133.916C673.59 133.916 674.887 133.619 676.152 132.89C677.395 132.174 678.552 131.073 679.781 129.555L679.004 128.926L678.226 128.297C677.075 129.719 676.098 130.613 675.153 131.157C674.231 131.688 673.287 131.916 672.144 131.916V132.916ZM679.004 128.926L678.325 129.661L679.235 130.501L679.914 129.766L680.592 129.031L679.682 128.191L679.004 128.926ZM679.914 129.766L679.053 129.257C677.377 132.093 674.595 134.366 670.114 134.366V135.366V136.366C675.432 136.366 678.81 133.599 680.775 130.275L679.914 129.766ZM670.114 135.366V134.366C665.962 134.366 663.547 133.202 662.119 131.359C660.647 129.457 660.054 126.622 660.054 122.906H659.054H658.054C658.054 126.75 658.65 130.144 660.538 132.583C662.471 135.079 665.585 136.366 670.114 136.366V135.366ZM659.054 122.906H660.054V100.996H659.054H658.054V122.906H659.054ZM659.054 100.996V99.9958H654.784V100.996V101.996H659.054V100.996ZM708.38 123.816L708.794 122.905L707.969 122.531L707.515 123.314L708.38 123.816ZM709.15 124.166L710.091 124.504L710.403 123.637L709.564 123.255L709.15 124.166ZM709.01 109.046V110.046H710.02L710.01 109.036L709.01 109.046ZM685.35 109.046V108.046H684.522L684.368 108.859L685.35 109.046ZM685.63 107.646L684.668 107.373L684.307 108.646H685.63V107.646ZM701.03 107.646V108.646H702.115L702.027 107.564L701.03 107.646ZM708.38 123.816L707.966 124.726L708.736 125.076L709.15 124.166L709.564 123.255L708.794 122.905L708.38 123.816ZM709.15 124.166L708.209 123.828C705.774 130.606 699.246 134.296 693.61 134.296V135.296V136.296C700.014 136.296 707.346 132.145 710.091 124.504L709.15 124.166ZM693.61 135.296V134.296C688.571 134.296 684.761 132.168 682.179 128.979C679.579 125.767 678.202 121.445 678.16 117.086C678.118 112.727 679.411 108.418 682.039 105.218C684.646 102.043 688.616 99.8958 694.1 99.8958V98.8958V97.8958C688.034 97.8958 683.491 100.299 680.493 103.949C677.517 107.574 676.115 112.364 676.16 117.105C676.206 121.846 677.699 126.624 680.624 130.238C683.568 133.874 687.94 136.296 693.61 136.296V135.296ZM694.1 98.8958V99.8958C697.835 99.8958 701.348 100.663 703.9 102.202C706.412 103.718 707.979 105.961 708.01 109.056L709.01 109.046L710.01 109.036C709.971 105.131 707.933 102.299 704.933 100.49C701.972 98.7038 698.066 97.8958 694.1 97.8958V98.8958ZM709.01 109.046V108.046H685.35V109.046V110.046H709.01V109.046ZM685.35 109.046L684.368 108.859C683.52 113.316 684.27 118.57 686.71 122.737C689.172 126.943 693.379 130.066 699.35 130.066V129.066V128.066C694.192 128.066 690.594 125.414 688.436 121.727C686.255 118.002 685.57 113.245 686.333 109.233L685.35 109.046ZM699.35 129.066V130.066C703.26 130.066 707.028 128.14 709.245 124.318L708.38 123.816L707.515 123.314C705.672 126.492 702.58 128.066 699.35 128.066V129.066ZM685.63 107.646V108.646H701.03V107.646V106.646H685.63V107.646ZM701.03 107.646L702.027 107.564C701.846 105.354 701.33 103.275 700.083 101.739C698.793 100.151 696.85 99.2958 694.17 99.2958V100.296V101.296C696.391 101.296 697.702 101.981 698.53 103C699.4 104.072 699.865 105.668 700.033 107.728L701.03 107.646ZM694.17 100.296V99.2958C689.092 99.2958 685.933 102.908 684.668 107.373L685.63 107.646L686.592 107.918C687.707 103.984 690.288 101.296 694.17 101.296V100.296ZM710.168 90.4958H709.168V91.4958H710.168V90.4958ZM710.168 89.0958V88.0958H709.168V89.0958H710.168ZM722.628 84.4058V83.4058H722.16L721.861 83.7645L722.628 84.4058ZM723.328 84.4058H724.328V83.4058H723.328V84.4058ZM728.088 133.196H729.088V132.196H728.088V133.196ZM728.088 134.596V135.596H729.088V134.596H728.088ZM710.168 134.596H709.168V135.596H710.168V134.596ZM710.168 133.196V132.196H709.168V133.196H710.168ZM714.928 128.506H715.928V94.9058H714.928H713.928V128.506H714.928ZM714.928 94.9058H715.928C715.928 93.3519 715.412 91.9811 714.427 90.9962C713.443 90.0114 712.072 89.4958 710.518 89.4958V90.4958V91.4958C711.624 91.4958 712.458 91.8553 713.013 92.4105C713.568 92.9656 713.928 93.7997 713.928 94.9058H714.928ZM710.518 90.4958V89.4958H710.168V90.4958V91.4958H710.518V90.4958ZM710.168 90.4958H711.168V89.0958H710.168H709.168V90.4958H710.168ZM710.168 89.0958V90.0958C712.508 90.0958 719.143 90.1346 723.395 85.0472L722.628 84.4058L721.861 83.7645C718.273 88.057 712.587 88.0958 710.168 88.0958V89.0958ZM722.628 84.4058V85.4058H723.328V84.4058V83.4058H722.628V84.4058ZM723.328 84.4058H722.328V128.506H723.328H724.328V84.4058H723.328ZM723.328 128.506H722.328C722.328 130.136 722.882 131.575 723.916 132.608C724.949 133.641 726.387 134.196 728.018 134.196V133.196V132.196C726.848 132.196 725.942 131.805 725.33 131.194C724.718 130.582 724.328 129.675 724.328 128.506H723.328ZM728.018 133.196V134.196H728.088V133.196V132.196H728.018V133.196ZM728.088 133.196H727.088V134.596H728.088H729.088V133.196H728.088ZM728.088 134.596V133.596H710.168V134.596V135.596H728.088V134.596ZM710.168 134.596H711.168V133.196H710.168H709.168V134.596H710.168ZM710.168 133.196V134.196H710.238V133.196V132.196H710.168V133.196ZM710.238 133.196V134.196C711.868 134.196 713.307 133.641 714.34 132.608C715.373 131.575 715.928 130.136 715.928 128.506H714.928H713.928C713.928 129.675 713.537 130.582 712.926 131.194C712.314 131.805 711.407 132.196 710.238 132.196V133.196ZM728.762 103.936H727.762V104.936H728.762V103.936ZM728.762 102.536V101.536H727.762V102.536H728.762ZM741.222 97.8458V96.8458H740.754L740.454 97.2045L741.222 97.8458ZM741.922 97.8458H742.922V96.8458H741.922V97.8458ZM746.682 133.196H747.682V132.196H746.682V133.196ZM746.682 134.596V135.596H747.682V134.596H746.682ZM728.762 134.596H727.762V135.596H728.762V134.596ZM728.762 133.196V132.196H727.762V133.196H728.762ZM733.242 91.2658H734.242C734.242 90.1281 734.617 89.2577 735.2 88.6742C735.783 88.0907 736.654 87.7158 737.792 87.7158V86.7158V85.7158C736.199 85.7158 734.795 86.251 733.786 87.26C732.777 88.269 732.242 89.6736 732.242 91.2658H733.242ZM737.792 86.7158V87.7158C738.929 87.7158 739.8 88.0907 740.383 88.6742C740.967 89.2577 741.342 90.1281 741.342 91.2658H742.342H743.342C743.342 89.6736 742.807 88.269 741.797 87.26C740.788 86.251 739.384 85.7158 737.792 85.7158V86.7158ZM742.342 91.2658H741.342C741.342 92.4036 740.967 93.274 740.383 93.8575C739.8 94.441 738.929 94.8158 737.792 94.8158V95.8158V96.8158C739.384 96.8158 740.788 96.2807 741.797 95.2717C742.807 94.2627 743.342 92.8581 743.342 91.2658H742.342ZM737.792 95.8158V94.8158C736.654 94.8158 735.783 94.441 735.2 93.8575C734.617 93.274 734.242 92.4036 734.242 91.2658H733.242H732.242C732.242 92.8581 732.777 94.2627 733.786 95.2717C734.795 96.2807 736.199 96.8158 737.792 96.8158V95.8158ZM733.522 128.506H734.522V108.346H733.522H732.522V128.506H733.522ZM733.522 108.346H734.522C734.522 106.792 734.006 105.421 733.021 104.436C732.036 103.451 730.666 102.936 729.112 102.936V103.936V104.936C730.218 104.936 731.052 105.295 731.607 105.85C732.162 106.406 732.522 107.24 732.522 108.346H733.522ZM729.112 103.936V102.936H728.762V103.936V104.936H729.112V103.936ZM728.762 103.936H729.762V102.536H728.762H727.762V103.936H728.762ZM728.762 102.536V103.536C731.102 103.536 737.737 103.575 741.989 98.4872L741.222 97.8458L740.454 97.2045C736.867 101.497 731.181 101.536 728.762 101.536V102.536ZM741.222 97.8458V98.8458H741.922V97.8458V96.8458H741.222V97.8458ZM741.922 97.8458H740.922V128.506H741.922H742.922V97.8458H741.922ZM741.922 128.506H740.922C740.922 130.136 741.476 131.575 742.51 132.608C743.543 133.641 744.981 134.196 746.612 134.196V133.196V132.196C745.442 132.196 744.535 131.805 743.924 131.194C743.312 130.582 742.922 129.675 742.922 128.506H741.922ZM746.612 133.196V134.196H746.682V133.196V132.196H746.612V133.196ZM746.682 133.196H745.682V134.596H746.682H747.682V133.196H746.682ZM746.682 134.596V133.596H728.762V134.596V135.596H746.682V134.596ZM728.762 134.596H729.762V133.196H728.762H727.762V134.596H728.762ZM728.762 133.196V134.196H728.832V133.196V132.196H728.762V133.196ZM728.832 133.196V134.196C730.462 134.196 731.9 133.641 732.934 132.608C733.967 131.575 734.522 130.136 734.522 128.506H733.522H732.522C732.522 129.675 732.131 130.582 731.52 131.194C730.908 131.805 730.001 132.196 728.832 132.196V133.196ZM778.995 123.816L779.409 122.905L778.585 122.531L778.13 123.314L778.995 123.816ZM779.765 124.166L780.706 124.504L781.018 123.637L780.179 123.255L779.765 124.166ZM779.625 109.046V110.046H780.635L780.625 109.036L779.625 109.046ZM755.965 109.046V108.046H755.138L754.983 108.859L755.965 109.046ZM756.245 107.646L755.283 107.373L754.923 108.646H756.245V107.646ZM771.645 107.646V108.646H772.731L772.642 107.564L771.645 107.646ZM778.995 123.816L778.582 124.726L779.352 125.076L779.765 124.166L780.179 123.255L779.409 122.905L778.995 123.816ZM779.765 124.166L778.824 123.828C776.389 130.606 769.861 134.296 764.225 134.296V135.296V136.296C770.63 136.296 777.961 132.145 780.706 124.504L779.765 124.166ZM764.225 135.296V134.296C759.186 134.296 755.376 132.168 752.794 128.979C750.194 125.767 748.817 121.445 748.775 117.086C748.733 112.727 750.026 108.418 752.654 105.218C755.261 102.043 759.231 99.8958 764.715 99.8958V98.8958V97.8958C758.649 97.8958 754.106 100.299 751.108 103.949C748.132 107.574 746.73 112.364 746.775 117.105C746.821 121.846 748.314 126.624 751.24 130.238C754.184 133.874 758.555 136.296 764.225 136.296V135.296ZM764.715 98.8958V99.8958C768.45 99.8958 771.963 100.663 774.515 102.202C777.028 103.718 778.594 105.961 778.625 109.056L779.625 109.046L780.625 109.036C780.586 105.131 778.548 102.299 775.548 100.49C772.587 98.7038 768.681 97.8958 764.715 97.8958V98.8958ZM779.625 109.046V108.046H755.965V109.046V110.046H779.625V109.046ZM755.965 109.046L754.983 108.859C754.136 113.316 754.885 118.57 757.325 122.737C759.787 126.943 763.994 130.066 769.965 130.066V129.066V128.066C764.807 128.066 761.209 125.414 759.051 121.727C756.871 118.002 756.185 113.245 756.948 109.233L755.965 109.046ZM769.965 129.066V130.066C773.875 130.066 777.643 128.14 779.86 124.318L778.995 123.816L778.13 123.314C776.287 126.492 773.196 128.066 769.965 128.066V129.066ZM756.245 107.646V108.646H771.645V107.646V106.646H756.245V107.646ZM771.645 107.646L772.642 107.564C772.461 105.354 771.945 103.275 770.698 101.739C769.408 100.151 767.465 99.2958 764.785 99.2958V100.296V101.296C767.006 101.296 768.318 101.981 769.145 103C770.016 104.072 770.48 105.668 770.649 107.728L771.645 107.646ZM764.785 100.296V99.2958C759.707 99.2958 756.548 102.908 755.283 107.373L756.245 107.646L757.208 107.918C758.322 103.984 760.903 101.296 764.785 101.296V100.296Z" fill="#FFF9FA" mask="url(#path-3-outside-1_19_272)"/>
<path d="M759.7 93.2L759.52 92.93C760.87 90.95 763.39 87.98 764.74 86.09H765.28C766.45 87.62 769.6 91.49 770.59 92.93L770.41 93.2L765.01 90.86L759.7 93.2Z" fill="#FFF8F9"/>
<path d="M592.505 30.4171L578.601 36.8663L586.056 49.4465C586.056 49.4465 585.306 39.6935 587.637 36.5951C588.961 34.8352 592.505 30.4171 592.505 30.4171Z" fill="#FFCFD8" stroke="#FFD0D9"/>
<path d="M573.861 62.3518L586.815 61.5246C586.815 61.5246 587.751 54.0332 586.436 49.7645C585.685 47.3267 581.883 43.3154 581.883 43.3154C581.883 43.3154 581.901 54.1641 579.228 56.9723C577.709 58.5674 573.861 62.3518 573.861 62.3518Z" fill="#FFCED6" stroke="#FFD4DB"/>
<path d="M612.351 25.8922C605.897 21.6615 602.504 24.3675 594.95 28.6494C593.17 29.6585 592.547 30.1548 592.74 30.4171C594.023 30.0378 600.08 30.0724 605.88 33.1362C610.287 35.464 617.001 42.1354 617.001 42.1354C617.001 42.1354 618.183 29.7147 612.351 25.8922Z" fill="#FFEEF1" stroke="#FFF6F8"/>
<path d="M569.875 63.8008C571.393 74.8022 593.396 81.6307 593.396 81.6307L580.118 66.0769L573.222 47.4883C573.222 47.4883 571.772 44.0741 571.772 41.7979C571.772 41.0572 570.651 42.5877 570.503 43.3154C569.851 46.519 568.834 56.2511 569.875 63.8008Z" fill="#FFF0F8" stroke="#FFDFEF"/>
<path d="M609.708 54.3584C613.674 54.7918 616.912 56.7755 619.192 60.0488C621.563 63.4526 619.192 70.6708 619.192 70.6708C619.192 70.6708 614.49 78.1483 609.708 80.5342C603.345 83.7093 597.931 83.5671 591.499 80.5342C584.823 77.3863 582.163 72.7103 579.739 65.7392C578.266 61.5042 576.324 54.3584 576.324 54.3584C576.324 54.3584 586.014 62.7742 592.637 63.463C599.835 64.2116 602.514 53.5721 609.708 54.3584Z" fill="white" stroke="white"/>
<circle cx="609.555" cy="65.1649" r="5.56976" transform="rotate(41.9717 609.555 65.1649)" fill="#E64B7B" stroke="#E64B7B"/>
<path d="M605.833 65.899C606.538 66.5334 608.765 65.4753 608.765 65.4753C608.765 65.4753 608.588 67.7427 609.443 68.1256C610.689 68.6838 611.83 67.3805 612.29 66.0946C612.761 64.7788 612.341 63.5895 611.302 62.6548C610.263 61.7201 609.067 61.4973 607.777 62.0354C606.218 62.6857 604.987 65.1379 605.833 65.899Z" fill="white" stroke="white"/>
<path d="M583.912 75.561C581.751 72.6079 579.359 66.077 579.359 66.077C579.359 66.077 585.488 70.6392 588.085 73.6642C589.976 75.8679 593.993 79.5848 595.92 81.6307C613.75 82.5949 596.81 83.1482 596.81 83.1482C596.81 83.1482 593.039 82.3523 589.602 80.4926C586.988 79.0784 585.107 77.1943 583.912 75.561Z" fill="#FFE9EE"/>
<path d="M596.81 83.1482C596.81 83.1482 593.039 82.3523 589.602 80.4926M596.81 83.1482C596.81 83.1482 592.269 81.7463 589.602 80.4926M596.81 83.1482C596.81 83.1482 613.75 82.5949 595.92 81.6307M596.81 83.1482C596.81 83.1482 596.416 82.1554 595.92 81.6307M589.602 80.4926C586.988 79.0784 585.107 77.1943 583.912 75.561C581.751 72.6079 579.359 66.077 579.359 66.077C579.359 66.077 585.488 70.6392 588.085 73.6642C589.976 75.8679 593.993 79.5848 595.92 81.6307" stroke="#FFE8ED"/>
<path d="M619.44 41.4852C631.539 31.4154 652.065 42.5565 652.065 42.5565M619.44 41.4852C619.44 41.4852 626.561 40.7865 634.235 45.5914C640.07 49.2448 641.063 52.7992 641.063 52.7992M619.44 41.4852C613.37 44.0841 610.394 51.8819 606.542 55.4549C611.431 51.1238 619.44 41.4852 619.44 41.4852Z" stroke="#FFE5EB"/>
<path d="M649.007 50.1993C650.538 51.9368 652.704 49.4764 652.704 49.4764C652.704 49.4764 654.216 53.1757 656.46 51.6573C658.217 50.469 656.227 47.3021 656.227 47.3021C656.227 47.3021 660.604 48.3036 659.473 44.536C658.849 42.4558 655.749 43.6589 655.749 43.6589C655.749 43.6589 656.275 39.886 654.01 39.7826C651.746 39.6792 651.671 43.257 651.671 43.257C651.671 43.257 649.75 41.2074 648.157 43.4459C646.735 45.4446 649.791 46.7892 649.791 46.7892C649.791 46.7892 647.627 48.6332 649.007 50.1993Z" fill="#FFD9E1" stroke="#FFD9E1"/>
<mask id="path-17-outside-2_19_272" maskUnits="userSpaceOnUse" x="619.502" y="50.2819" width="72" height="35" fill="black">
<rect fill="white" x="619.502" y="50.2819" width="72" height="35"/>
<path fill-rule="evenodd" clip-rule="evenodd" d="M624.63 77.8675V60.3866C624.63 58.0801 623.112 56.5626 620.806 56.5626H620.502V55.3487C622.566 55.3487 627.907 55.3487 631.306 51.2819H631.913V58.5049C634.584 55.1059 638.165 52.1924 642.293 52.1924C649.819 52.1924 649.88 60.8114 643.142 62.511C643.223 62.1159 643.279 61.7357 643.309 61.3723C644.485 61.4879 645.969 61.1847 645.582 58.7663C645.238 56.6218 642.007 57.404 642.007 57.404C642.007 57.404 643.027 53.7339 640.797 53.3317C638.566 52.9295 638.018 56.4659 638.018 56.4659C638.018 56.4659 636.385 54.1801 634.51 56.1881C633.812 56.9353 633.901 57.6729 634.241 58.2791C633.355 58.8407 632.546 59.6214 631.913 60.6901V77.8675C631.913 80.2954 633.552 81.9342 635.98 81.9342H636.041V83.1482H620.502V81.9342H620.563C622.991 81.9342 624.63 80.2954 624.63 77.8675ZM652.548 77.8675V60.3866C652.548 58.0801 651.031 56.5626 648.724 56.5626H648.421V55.3487C650.484 55.3487 655.826 55.3487 659.225 51.2819H659.832V77.8675C659.832 80.2954 661.471 81.9342 663.899 81.9342H663.959V83.1482H648.421V81.9342H648.481C650.909 81.9342 652.548 80.2954 652.548 77.8675ZM665.151 76.7142C665.151 81.9949 671.888 83.7551 677.169 83.7551C682.267 83.7551 689.976 81.7521 689.976 75.1968C689.976 68.5054 684.201 66.3591 679.05 64.4445C674.903 62.903 671.16 61.5117 671.16 58.0194C671.16 54.9845 673.952 53.4063 676.622 53.4063C680.75 53.4063 684.756 56.077 686.273 62.9966H687.487L686.82 51.6461H686.455L685.909 51.9496C684.075 52.9502 681.896 52.6908 679.709 52.4302C678.712 52.3114 677.713 52.1924 676.744 52.1924C670.674 52.1924 665.211 55.1059 665.211 60.5687C665.211 66.6038 670.363 68.7016 675.158 70.6544C679.333 72.3546 683.238 73.9448 683.238 77.9282C683.238 80.781 681.175 82.5412 677.594 82.5412C671.645 82.5412 670.249 75.9252 674.073 74.1649C670.37 70.0982 665.151 72.8296 665.151 76.7142Z"/>
</mask>
<path fill-rule="evenodd" clip-rule="evenodd" d="M624.63 77.8675V60.3866C624.63 58.0801 623.112 56.5626 620.806 56.5626H620.502V55.3487C622.566 55.3487 627.907 55.3487 631.306 51.2819H631.913V58.5049C634.584 55.1059 638.165 52.1924 642.293 52.1924C649.819 52.1924 649.88 60.8114 643.142 62.511C643.223 62.1159 643.279 61.7357 643.309 61.3723C644.485 61.4879 645.969 61.1847 645.582 58.7663C645.238 56.6218 642.007 57.404 642.007 57.404C642.007 57.404 643.027 53.7339 640.797 53.3317C638.566 52.9295 638.018 56.4659 638.018 56.4659C638.018 56.4659 636.385 54.1801 634.51 56.1881C633.812 56.9353 633.901 57.6729 634.241 58.2791C633.355 58.8407 632.546 59.6214 631.913 60.6901V77.8675C631.913 80.2954 633.552 81.9342 635.98 81.9342H636.041V83.1482H620.502V81.9342H620.563C622.991 81.9342 624.63 80.2954 624.63 77.8675ZM652.548 77.8675V60.3866C652.548 58.0801 651.031 56.5626 648.724 56.5626H648.421V55.3487C650.484 55.3487 655.826 55.3487 659.225 51.2819H659.832V77.8675C659.832 80.2954 661.471 81.9342 663.899 81.9342H663.959V83.1482H648.421V81.9342H648.481C650.909 81.9342 652.548 80.2954 652.548 77.8675ZM665.151 76.7142C665.151 81.9949 671.888 83.7551 677.169 83.7551C682.267 83.7551 689.976 81.7521 689.976 75.1968C689.976 68.5054 684.201 66.3591 679.05 64.4445C674.903 62.903 671.16 61.5117 671.16 58.0194C671.16 54.9845 673.952 53.4063 676.622 53.4063C680.75 53.4063 684.756 56.077 686.273 62.9966H687.487L686.82 51.6461H686.455L685.909 51.9496C684.075 52.9502 681.896 52.6908 679.709 52.4302C678.712 52.3114 677.713 52.1924 676.744 52.1924C670.674 52.1924 665.211 55.1059 665.211 60.5687C665.211 66.6038 670.363 68.7016 675.158 70.6544C679.333 72.3546 683.238 73.9448 683.238 77.9282C683.238 80.781 681.175 82.5412 677.594 82.5412C671.645 82.5412 670.249 75.9252 674.073 74.1649C670.37 70.0982 665.151 72.8296 665.151 76.7142Z" fill="#FFF8F9"/>
<path d="M620.502 56.5626H619.502V57.5626H620.502V56.5626ZM620.502 55.3487V54.3487H619.502V55.3487H620.502ZM631.306 51.2819V50.2819H630.839L630.539 50.6406L631.306 51.2819ZM631.913 51.2819H632.913V50.2819H631.913V51.2819ZM631.913 58.5049H630.913V61.3963L632.7 59.1228L631.913 58.5049ZM643.142 62.511L642.163 62.3114L641.845 63.8696L643.387 63.4806L643.142 62.511ZM643.309 61.3723L643.407 60.3771L642.397 60.2778L642.313 61.2893L643.309 61.3723ZM645.582 58.7663L644.594 58.9245L645.582 58.7663ZM642.007 57.404L641.044 57.1363L640.588 58.7765L642.242 58.376L642.007 57.404ZM640.797 53.3317L640.619 54.3158L640.797 53.3317ZM638.018 56.4659L637.204 57.0471L638.631 59.0437L639.006 56.6191L638.018 56.4659ZM634.51 56.1881L633.779 55.5056H633.779L634.51 56.1881ZM634.241 58.2791L634.776 59.1238L635.577 58.6163L635.113 57.7895L634.241 58.2791ZM631.913 60.6901L631.053 60.1807L630.913 60.4163V60.6901H631.913ZM636.041 81.9342H637.041V80.9342H636.041V81.9342ZM636.041 83.1482V84.1482H637.041V83.1482H636.041ZM620.502 83.1482H619.502V84.1482H620.502V83.1482ZM620.502 81.9342V80.9342H619.502V81.9342H620.502ZM648.421 56.5626H647.421V57.5626H648.421V56.5626ZM648.421 55.3487V54.3487H647.421V55.3487H648.421ZM659.225 51.2819V50.2819H658.757L658.458 50.6406L659.225 51.2819ZM659.832 51.2819H660.832V50.2819H659.832V51.2819ZM663.959 81.9342H664.959V80.9342H663.959V81.9342ZM663.959 83.1482V84.1482H664.959V83.1482H663.959ZM648.421 83.1482H647.421V84.1482H648.421V83.1482ZM648.421 81.9342V80.9342H647.421V81.9342H648.421ZM679.05 64.4445L679.399 63.5072L679.05 64.4445ZM686.273 62.9966L685.296 63.2108L685.469 63.9966H686.273V62.9966ZM687.487 62.9966V63.9966H688.548L688.485 62.9378L687.487 62.9966ZM686.82 51.6461L687.818 51.5874L687.762 50.6461H686.82V51.6461ZM686.455 51.6461V50.6461H686.196L685.97 50.772L686.455 51.6461ZM685.909 51.9496L686.388 52.8275L686.395 52.8238L685.909 51.9496ZM679.709 52.4302L679.591 53.4232L679.709 52.4302ZM675.158 70.6544L675.535 69.7282L675.158 70.6544ZM674.073 74.1649L674.491 75.0733L675.732 74.502L674.812 73.4917L674.073 74.1649ZM624.63 60.3866H623.63V77.8675H624.63H625.63V60.3866H624.63ZM620.806 56.5626V57.5626C621.735 57.5626 622.423 57.8639 622.875 58.3168C623.328 58.7696 623.63 59.4572 623.63 60.3866H624.63H625.63C625.63 59.0094 625.172 57.7851 624.29 56.9025C623.407 56.02 622.183 55.5626 620.806 55.5626V56.5626ZM620.502 56.5626V57.5626H620.806V56.5626V55.5626H620.502V56.5626ZM620.502 55.3487H619.502V56.5626H620.502H621.502V55.3487H620.502ZM631.306 51.2819L630.539 50.6406C627.472 54.3099 622.605 54.3487 620.502 54.3487V55.3487V56.3487C622.526 56.3487 628.342 56.3875 632.074 51.9232L631.306 51.2819ZM631.913 51.2819V50.2819H631.306V51.2819V52.2819H631.913V51.2819ZM631.913 58.5049H632.913V51.2819H631.913H630.913V58.5049H631.913ZM642.293 52.1924V51.1924C637.69 51.1924 633.851 54.4204 631.127 57.8871L631.913 58.5049L632.7 59.1228C635.317 55.7913 638.64 53.1924 642.293 53.1924V52.1924ZM643.142 62.511L643.387 63.4806C647.168 62.5268 649.204 59.5581 649.065 56.6663C648.996 55.2252 648.38 53.8344 647.205 52.8114C646.03 51.789 644.367 51.1924 642.293 51.1924V52.1924V53.1924C643.982 53.1924 645.149 53.6732 645.892 54.32C646.634 54.9661 647.023 55.8363 647.068 56.7624C647.156 58.605 645.854 60.7956 642.898 61.5414L643.142 62.511ZM643.309 61.3723L642.313 61.2893C642.286 61.6085 642.236 61.9496 642.163 62.3114L643.142 62.511L644.122 62.7106C644.21 62.2823 644.272 61.8628 644.306 61.4554L643.309 61.3723ZM643.309 61.3723L643.212 62.3675C643.867 62.4319 644.861 62.4161 645.644 61.8102C646.517 61.1339 646.794 60.0081 646.569 58.6082L645.582 58.7663L644.594 58.9245C644.758 59.9429 644.485 60.1779 644.419 60.2289C644.263 60.3502 643.928 60.4283 643.407 60.3771L643.309 61.3723ZM645.582 58.7663L646.569 58.6082C646.437 57.7839 646.004 57.1875 645.423 56.8102C644.88 56.4572 644.261 56.3281 643.751 56.2846C643.23 56.2402 642.739 56.2783 642.389 56.3236C642.211 56.3465 642.063 56.3723 641.957 56.3928C641.904 56.4031 641.861 56.4121 641.829 56.419C641.814 56.4224 641.801 56.4253 641.791 56.4275C641.786 56.4286 641.782 56.4296 641.779 56.4304C641.777 56.4307 641.776 56.4311 641.775 56.4314C641.774 56.4315 641.774 56.4317 641.773 56.4318C641.773 56.4318 641.773 56.4319 641.772 56.432C641.772 56.432 641.772 56.4321 642.007 57.404C642.242 58.376 642.242 58.376 642.242 58.3761C642.242 58.3761 642.241 58.3762 642.241 58.3762C642.241 58.3763 642.241 58.3764 642.24 58.3764C642.24 58.3765 642.24 58.3766 642.24 58.3766C642.24 58.3766 642.24 58.3765 642.241 58.3762C642.244 58.3756 642.249 58.3744 642.258 58.3726C642.274 58.369 642.3 58.3634 642.336 58.3565C642.408 58.3426 642.515 58.3239 642.645 58.3071C642.912 58.2726 643.25 58.2492 643.581 58.2774C643.921 58.3064 644.174 58.3838 644.333 58.4873C644.455 58.5665 644.555 58.6765 644.594 58.9245L645.582 58.7663ZM642.007 57.404C642.971 57.6718 642.971 57.6715 642.971 57.6712C642.971 57.6711 642.971 57.6708 642.971 57.6705C642.971 57.67 642.971 57.6695 642.971 57.6689C642.972 57.6677 642.972 57.6663 642.973 57.6646C642.973 57.6613 642.975 57.6571 642.976 57.652C642.979 57.6419 642.982 57.6283 642.987 57.6114C642.995 57.5776 643.007 57.5306 643.02 57.4722C643.048 57.3556 643.083 57.1919 643.117 56.9952C643.184 56.6074 643.252 56.0662 643.238 55.4941C643.224 54.9357 643.131 54.2584 642.805 53.6597C642.454 53.0152 641.854 52.5063 640.974 52.3476L640.797 53.3317L640.619 54.3158C640.854 54.3582 640.963 54.4588 641.048 54.6157C641.159 54.8182 641.228 55.1339 641.239 55.5433C641.248 55.939 641.201 56.3405 641.146 56.6534C641.12 56.8071 641.092 56.9333 641.073 57.0189C641.063 57.0616 641.055 57.0939 641.049 57.1141C641.047 57.1241 641.045 57.1312 641.044 57.135C641.043 57.1368 641.043 57.1379 641.043 57.1381C641.043 57.1383 641.043 57.1382 641.043 57.1379C641.043 57.1377 641.043 57.1375 641.043 57.1372C641.043 57.1371 641.043 57.1369 641.043 57.1368C641.043 57.1365 641.044 57.1363 642.007 57.404ZM640.797 53.3317L640.974 52.3476C640.12 52.1936 639.389 52.4246 638.82 52.853C638.283 53.2575 637.92 53.8128 637.676 54.3017C637.428 54.7996 637.269 55.2987 637.172 55.6633C637.123 55.8482 637.088 56.0045 637.066 56.117C637.054 56.1734 637.046 56.2191 637.04 56.2523C637.037 56.2689 637.035 56.2824 637.033 56.2925C637.032 56.2976 637.032 56.3018 637.031 56.3052C637.031 56.3069 637.031 56.3084 637.03 56.3096C637.03 56.3103 637.03 56.3108 637.03 56.3113C637.03 56.3116 637.03 56.3119 637.03 56.3121C637.03 56.3124 637.03 56.3127 638.018 56.4659C639.006 56.6191 639.006 56.6193 639.006 56.6196C639.006 56.6197 639.006 56.62 639.006 56.6201C639.006 56.6204 639.006 56.6207 639.006 56.6209C639.006 56.6213 639.006 56.6215 639.006 56.6215C639.006 56.6214 639.006 56.6206 639.006 56.619C639.007 56.6158 639.008 56.6095 639.01 56.6003C639.013 56.5818 639.018 56.552 639.026 56.5124C639.042 56.4331 639.068 56.3163 639.105 56.1759C639.181 55.89 639.298 55.5302 639.466 55.1943C639.638 54.8493 639.83 54.596 640.023 54.4505C640.185 54.329 640.358 54.2688 640.619 54.3158L640.797 53.3317ZM638.018 56.4659C638.832 55.8846 638.832 55.8843 638.831 55.8839C638.831 55.8837 638.831 55.8833 638.831 55.883C638.83 55.8824 638.83 55.8818 638.829 55.8812C638.828 55.8799 638.827 55.8784 638.826 55.8768C638.824 55.8736 638.821 55.8699 638.818 55.8656C638.812 55.857 638.804 55.8463 638.794 55.8336C638.775 55.8083 638.748 55.7749 638.716 55.7354C638.651 55.6566 638.559 55.5513 638.442 55.4341C638.214 55.2051 637.864 54.9038 637.414 54.6791C636.956 54.4511 636.363 54.2872 635.688 54.3974C635.008 54.5085 634.365 54.8784 633.779 55.5056L634.51 56.1881L635.241 56.8706C635.593 56.4938 635.857 56.3964 636.011 56.3713C636.17 56.3453 636.336 56.3764 636.521 56.4689C636.713 56.5646 636.889 56.7093 637.026 56.8461C637.091 56.9119 637.141 56.9694 637.173 57.0078C637.188 57.0268 637.199 57.0407 637.205 57.0478C637.207 57.0514 637.209 57.0532 637.209 57.0532C637.209 57.0532 637.208 57.0527 637.208 57.0517C637.207 57.0512 637.207 57.0505 637.206 57.0498C637.206 57.0494 637.206 57.049 637.205 57.0486C637.205 57.0483 637.205 57.048 637.205 57.0479C637.205 57.0475 637.204 57.0471 638.018 56.4659ZM634.51 56.1881L633.779 55.5056C633.296 56.0229 633.028 56.6057 632.988 57.2227C632.95 57.8233 633.135 58.3518 633.369 58.7687L634.241 58.2791L635.113 57.7895C635.007 57.6002 634.978 57.4569 634.984 57.3503C634.99 57.2601 635.026 57.1005 635.241 56.8706L634.51 56.1881ZM631.913 60.6901L632.774 61.1994C633.321 60.2742 634.016 59.6058 634.776 59.1238L634.241 58.2791L633.706 57.4343C632.694 58.0757 631.77 58.9686 631.053 60.1807L631.913 60.6901ZM631.913 77.8675H632.913V60.6901H631.913H630.913V77.8675H631.913ZM635.98 81.9342V80.9342C634.997 80.9342 634.246 80.6066 633.743 80.1042C633.241 79.6018 632.913 78.851 632.913 77.8675H631.913H630.913C630.913 79.3118 631.405 80.5944 632.329 81.5184C633.253 82.4424 634.536 82.9342 635.98 82.9342V81.9342ZM636.041 81.9342V80.9342H635.98V81.9342V82.9342H636.041V81.9342ZM636.041 83.1482H637.041V81.9342H636.041H635.041V83.1482H636.041ZM620.502 83.1482V84.1482H636.041V83.1482V82.1482H620.502V83.1482ZM620.502 81.9342H619.502V83.1482H620.502H621.502V81.9342H620.502ZM620.563 81.9342V80.9342H620.502V81.9342V82.9342H620.563V81.9342ZM624.63 77.8675H623.63C623.63 78.851 623.302 79.6018 622.8 80.1042C622.297 80.6066 621.546 80.9342 620.563 80.9342V81.9342V82.9342C622.007 82.9342 623.29 82.4424 624.214 81.5184C625.138 80.5944 625.63 79.3118 625.63 77.8675H624.63ZM652.548 60.3866H651.548V77.8675H652.548H653.548V60.3866H652.548ZM648.724 56.5626V57.5626C649.654 57.5626 650.341 57.8639 650.794 58.3168C651.247 58.7696 651.548 59.4572 651.548 60.3866H652.548H653.548C653.548 59.0094 653.091 57.7851 652.208 56.9025C651.326 56.02 650.101 55.5626 648.724 55.5626V56.5626ZM648.421 56.5626V57.5626H648.724V56.5626V55.5626H648.421V56.5626ZM648.421 55.3487H647.421V56.5626H648.421H649.421V55.3487H648.421ZM659.225 51.2819L658.458 50.6406C655.391 54.3099 650.524 54.3487 648.421 54.3487V55.3487V56.3487C650.445 56.3487 656.261 56.3875 659.992 51.9232L659.225 51.2819ZM659.832 51.2819V50.2819H659.225V51.2819V52.2819H659.832V51.2819ZM659.832 77.8675H660.832V51.2819H659.832H658.832V77.8675H659.832ZM663.899 81.9342V80.9342C662.915 80.9342 662.164 80.6066 661.662 80.1042C661.16 79.6018 660.832 78.851 660.832 77.8675H659.832H658.832C658.832 79.3118 659.324 80.5944 660.248 81.5184C661.172 82.4424 662.454 82.9342 663.899 82.9342V81.9342ZM663.959 81.9342V80.9342H663.899V81.9342V82.9342H663.959V81.9342ZM663.959 83.1482H664.959V81.9342H663.959H662.959V83.1482H663.959ZM648.421 83.1482V84.1482H663.959V83.1482V82.1482H648.421V83.1482ZM648.421 81.9342H647.421V83.1482H648.421H649.421V81.9342H648.421ZM648.481 81.9342V80.9342H648.421V81.9342V82.9342H648.481V81.9342ZM652.548 77.8675H651.548C651.548 78.851 651.221 79.6018 650.718 80.1042C650.216 80.6066 649.465 80.9342 648.481 80.9342V81.9342V82.9342C649.926 82.9342 651.208 82.4424 652.132 81.5184C653.056 80.5944 653.548 79.3118 653.548 77.8675H652.548ZM677.169 83.7551V82.7551C674.614 82.7551 671.769 82.3258 669.604 81.3097C667.456 80.3015 666.151 78.8207 666.151 76.7142H665.151H664.151C664.151 79.8885 666.214 81.9281 668.754 83.1202C671.278 84.3044 674.443 84.7551 677.169 84.7551V83.7551ZM689.976 75.1968H688.976C688.976 77.9855 687.374 79.8368 685.027 81.0451C682.647 82.27 679.616 82.7551 677.169 82.7551V83.7551V84.7551C679.82 84.7551 683.192 84.2388 685.942 82.8233C688.724 81.3913 690.976 78.9634 690.976 75.1968H689.976ZM679.05 64.4445L678.702 65.3819C681.311 66.3517 683.889 67.3188 685.833 68.8208C687.714 70.273 688.976 72.2058 688.976 75.1968H689.976H690.976C690.976 71.4964 689.351 69.0104 687.056 67.2379C684.826 65.5153 681.94 64.4519 679.399 63.5072L679.05 64.4445ZM671.16 58.0194H670.16C670.16 60.2135 671.373 61.7056 672.992 62.7936C674.565 63.8506 676.664 64.6243 678.702 65.3819L679.05 64.4445L679.399 63.5072C677.289 62.7233 675.442 62.0305 674.107 61.1335C672.818 60.2674 672.16 59.3176 672.16 58.0194H671.16ZM676.622 53.4063V52.4063C675.106 52.4063 673.521 52.8513 672.289 53.7748C671.033 54.7172 670.16 56.1548 670.16 58.0194H671.16H672.16C672.16 56.849 672.682 55.9801 673.489 55.3748C674.322 54.7504 675.468 54.4063 676.622 54.4063V53.4063ZM686.273 62.9966L687.25 62.7824C686.458 59.1715 684.994 56.5677 683.095 54.8625C681.188 53.1511 678.911 52.4063 676.622 52.4063V53.4063V54.4063C678.461 54.4063 680.251 54.9969 681.759 56.3507C683.273 57.7108 684.571 59.9021 685.296 63.2108L686.273 62.9966ZM687.487 62.9966V61.9966H686.273V62.9966V63.9966H687.487V62.9966ZM686.82 51.6461L685.821 51.7048L686.489 63.0553L687.487 62.9966L688.485 62.9378L687.818 51.5874L686.82 51.6461ZM686.455 51.6461V52.6461H686.82V51.6461V50.6461H686.455V51.6461ZM685.909 51.9496L686.395 52.8238L686.941 52.5203L686.455 51.6461L685.97 50.772L685.423 51.0754L685.909 51.9496ZM679.709 52.4302L679.591 53.4232C681.699 53.6743 684.222 54.0088 686.388 52.8275L685.909 51.9496L685.43 51.0717C683.927 51.8917 682.094 51.7072 679.827 51.4372L679.709 52.4302ZM676.744 52.1924V53.1924C677.643 53.1924 678.582 53.303 679.591 53.4232L679.709 52.4302L679.827 51.4372C678.842 51.3198 677.783 51.1924 676.744 51.1924V52.1924ZM665.211 60.5687H666.211C666.211 58.2241 667.363 56.4215 669.255 55.1649C671.175 53.8891 673.852 53.1924 676.744 53.1924V52.1924V51.1924C673.566 51.1924 670.476 51.9525 668.148 53.499C665.791 55.0649 664.211 57.4504 664.211 60.5687H665.211ZM675.158 70.6544L675.535 69.7282C673.104 68.7383 670.766 67.7773 669.014 66.3642C667.324 65 666.211 63.2376 666.211 60.5687H665.211H664.211C664.211 63.9349 665.674 66.239 667.758 67.9206C669.782 69.5534 672.416 70.6176 674.781 71.5805L675.158 70.6544ZM683.238 77.9282H684.238C684.238 75.531 683.031 73.868 681.359 72.6311C679.739 71.433 677.588 70.5642 675.535 69.7282L675.158 70.6544L674.781 71.5805C676.903 72.4447 678.793 73.2212 680.169 74.2391C681.493 75.2182 682.238 76.3421 682.238 77.9282H683.238ZM677.594 82.5412V83.5412C679.536 83.5412 681.199 83.0646 682.396 82.0752C683.617 81.0657 684.238 79.6149 684.238 77.9282H683.238H682.238C682.238 79.0943 681.828 79.95 681.122 80.5338C680.391 81.1376 679.233 81.5412 677.594 81.5412V82.5412ZM674.073 74.1649L673.655 73.2565C671.181 74.3953 670.483 77.0807 671.218 79.3248C671.971 81.6206 674.199 83.5412 677.594 83.5412V82.5412V81.5412C675.04 81.5412 673.595 80.1538 673.119 78.7015C672.626 77.1975 673.141 75.6948 674.491 75.0733L674.073 74.1649ZM665.151 76.7142H666.151C666.151 73.7872 670.216 71.4144 673.334 74.8381L674.073 74.1649L674.812 73.4917C670.525 68.782 664.151 71.872 664.151 76.7142H665.151Z" fill="#FFF8F9" mask="url(#path-17-outside-2_19_272)"/>
<path d="M571.641 42.936L578.09 36.8662C578.09 36.8662 580.182 39.6216 581.125 42.5566C582.213 45.9447 582.348 49.0784 581.125 52.42C580.417 54.3526 578.849 56.2136 578.849 56.2136L575.814 54.3168L571.641 42.936Z" fill="#FFDBE6" stroke="#FFD4E1"/>
<path d="M587.953 28.8997C583.748 31.094 578.09 36.8662 578.09 36.8662C578.09 36.8662 586.799 33.2496 591.747 30.4171C594.814 28.6614 599.334 25.4854 599.334 25.4854C599.334 25.4854 592.067 26.753 587.953 28.8997Z" fill="#FFE4E4" stroke="#FFE6E6"/>
<path d="M605.281 24.7267C605.281 24.7267 604.217 17.232 606.419 13.3459C608.178 10.2418 613.248 7.27616 613.248 7.27616M606.419 24.7267C606.419 24.7267 606.846 18.9754 609.075 16.3808C610.388 14.8522 613.248 13.3459 613.248 13.3459" stroke="#FFCECE"/>
<path d="M578.469 97.9432C580.429 89.2263 595.54 83.5275 595.54 83.5275C595.54 83.5275 588.531 92.1231 586.815 99.0813C584.968 106.574 590.229 119.187 590.229 119.187C590.229 119.187 576.506 106.676 578.469 97.9432Z" fill="#FFB9B9" stroke="#FFB3B3"/>
<path d="M598.955 117.291C598.955 117.291 598.575 130.189 597.058 130.189C595.54 130.189 587.194 113.876 587.194 113.876C587.194 113.876 585.42 107.36 587.194 99.84C588.933 92.4707 597.058 82.7688 597.058 82.7688C597.058 82.7688 593.421 93.973 594.023 101.357C594.628 108.789 598.955 117.291 598.955 117.291Z" fill="#FFD4DC" stroke="#FFCED7"/>
<path d="M594.023 102.496C591.504 94.9399 596.678 83.1482 596.678 83.1482L599.713 83.5275C599.713 83.5275 599.593 98.1101 603.886 106.668C608.255 115.377 621.716 124.119 621.716 124.119C621.716 124.119 615.285 126.45 611.094 126.016C599.805 124.845 597.437 112.738 594.023 102.496Z" fill="white" stroke="white"/>
<path d="M600.472 94.9083C601.272 101.23 605.404 108.945 605.404 108.945C605.404 108.945 604.497 100.401 605.404 98.7019C608.439 93.0115 614.853 93.9432 616.026 88.0798C617.923 78.5958 618.681 72.5261 618.681 72.5261C618.681 72.5261 613.877 78.0472 610.715 80.1133C607.103 82.4731 600.472 83.5275 600.472 83.5275C600.472 83.5275 599.914 90.4991 600.472 94.9083Z" fill="#FFCAD6" stroke="#FFD0DA"/>
<path d="M613.402 8.13866C613.805 8.59592 614.375 7.94841 614.375 7.94841C614.375 7.94841 614.773 8.92196 615.364 8.52236C615.826 8.20963 615.302 7.37617 615.302 7.37617C615.302 7.37617 616.454 7.63974 616.157 6.6482C615.992 6.10073 615.177 6.41735 615.177 6.41735C615.177 6.41735 615.315 5.42442 614.719 5.3972C614.123 5.36998 614.104 6.31158 614.104 6.31158C614.104 6.31158 613.598 5.77217 613.179 6.36131C612.805 6.88732 613.609 7.24118 613.609 7.24118C613.609 7.24118 613.039 7.72649 613.402 8.13866Z" fill="#FFCDD8" stroke="#FFCDD8"/>
<path d="M613.402 14.2084C613.805 14.6657 614.375 14.0182 614.375 14.0182C614.375 14.0182 614.773 14.9917 615.364 14.5921C615.826 14.2794 615.302 13.4459 615.302 13.4459C615.302 13.4459 616.454 13.7095 616.157 12.718C615.992 12.1705 615.177 12.4871 615.177 12.4871C615.177 12.4871 615.315 11.4942 614.719 11.467C614.123 11.4397 614.104 12.3813 614.104 12.3813C614.104 12.3813 613.598 11.8419 613.179 12.4311C612.805 12.9571 613.609 13.3109 613.609 13.3109C613.609 13.3109 613.039 13.7963 613.402 14.2084Z" fill="#FFCDD8" stroke="#FFCDD8"/>
<path d="M743.801 150.607L742.947 150.4L750.155 138.583L751.332 138.869L752.304 152.671L751.374 152.445L751.14 148.77L745.712 147.453L743.801 150.607ZM749.351 141.402L746.082 146.84L751.093 148.056L750.679 141.725C750.668 141.548 750.65 141.209 750.625 140.707C750.585 140.041 750.562 139.586 750.554 139.343C750.435 139.555 750.206 139.949 749.866 140.523C749.613 140.957 749.441 141.25 749.351 141.402Z" fill="#FFF8F9"/>
<path d="M758.29 152.765L757.509 152.792L757.176 143.032L757.898 143.007L757.976 144.705C758.048 144.52 758.133 144.341 758.231 144.169C758.761 143.278 759.475 142.817 760.373 142.786C760.594 142.779 760.823 142.81 761.06 142.88L760.985 143.566C760.736 143.51 760.514 143.485 760.318 143.492C759.85 143.507 759.426 143.685 759.047 144.023C758.365 144.672 758.047 145.641 758.091 146.929L758.29 152.765Z" fill="#FFF8F9"/>
<path d="M769.873 150.598C769.439 151.005 768.997 151.272 768.546 151.4C768.268 151.471 767.997 151.486 767.731 151.446C766.865 151.317 766.285 150.672 765.989 149.512L764.322 142.963L762.694 143.377L762.525 142.715L764.153 142.3L763.502 139.745L764.26 139.552L764.91 142.107L767.314 141.495L767.483 142.158L765.079 142.77L766.688 149.092C766.72 149.218 766.76 149.349 766.808 149.484C767.16 150.497 767.734 150.901 768.529 150.699C768.831 150.622 769.153 150.433 769.492 150.131L769.873 150.598Z" fill="#FFF8F9"/>
<path d="M779.439 145.827C778.785 146.698 778.078 147.348 777.317 147.774C776.63 148.146 775.933 148.309 775.227 148.262C773.709 148.166 772.435 147.167 771.407 145.266C770.843 144.224 770.545 143.223 770.514 142.263C770.478 140.801 771.05 139.752 772.229 139.113C772.412 139.014 772.602 138.926 772.797 138.85C774.537 138.234 776.064 139.14 777.378 141.568L777.564 141.911L772.136 144.849L772.154 144.883C772.588 145.685 773.089 146.31 773.657 146.757C774.74 147.637 775.889 147.748 777.103 147.091C777.767 146.731 778.375 146.173 778.927 145.415L779.439 145.827ZM772.554 139.714C772.234 139.888 771.964 140.115 771.746 140.396C771.077 141.321 771.104 142.602 771.828 144.239L776.507 141.683C776.266 141.237 775.996 140.835 775.699 140.477C774.713 139.367 773.665 139.113 772.554 139.714Z" fill="#FFF8F9"/>
<path d="M785.675 138.007C786.098 138.45 786.335 138.953 786.386 139.516C786.458 140.383 786.14 141.154 785.434 141.828C784.708 142.52 783.814 142.941 782.752 143.092L782.575 142.397C783.582 142.227 784.388 141.864 784.99 141.307C785.226 141.082 785.402 140.814 785.52 140.504C785.804 139.783 785.667 139.131 785.11 138.547C784.822 138.245 784.477 138.062 784.073 137.997C783.641 137.941 782.948 138.063 781.992 138.363C781.51 138.517 781.153 138.624 780.921 138.683C779.829 138.916 778.964 138.697 778.325 138.028C777.957 137.642 777.747 137.186 777.694 136.66C777.64 135.83 777.962 135.082 778.659 134.417C778.762 134.318 778.871 134.224 778.983 134.134C779.817 133.518 780.682 133.35 781.578 133.629L781.341 134.342C781.267 134.321 781.194 134.301 781.121 134.281C780.378 134.144 779.701 134.368 779.088 134.952C778.881 135.15 778.719 135.376 778.603 135.631C778.282 136.333 778.378 136.952 778.891 137.489C779.16 137.772 779.483 137.94 779.86 137.995C780.282 138.06 780.971 137.943 781.926 137.643C782.409 137.489 782.77 137.387 783.011 137.337C784.131 137.096 785.019 137.32 785.675 138.007Z" fill="#FFF8F9"/>
<path d="M793.955 130.592C793.888 130.704 793.815 130.812 793.737 130.916C793.291 131.453 792.679 131.548 791.9 131.2C791.96 131.327 792.013 131.466 792.06 131.615C792.348 132.55 792.253 133.412 791.775 134.204C791.546 134.583 791.277 134.892 790.966 135.13C790.068 135.835 789.029 135.831 787.847 135.118C787.412 134.856 787.088 134.485 786.875 134.007C786.445 132.956 786.667 131.706 787.542 130.257C787.838 129.767 788.108 129.382 788.352 129.104L786.964 128.266C786.741 128.132 786.521 128.029 786.305 127.96C785.359 127.662 784.606 127.976 784.048 128.902C783.617 129.615 783.415 130.504 783.442 131.57L782.725 131.548C782.696 130.436 782.946 129.43 783.473 128.532C783.702 128.153 783.975 127.839 784.293 127.589C785.194 126.902 786.203 126.894 787.317 127.567L791.682 130.201C791.938 130.356 792.16 130.467 792.347 130.534C792.847 130.714 793.232 130.581 793.501 130.135C793.561 130.035 793.61 129.942 793.646 129.858L794.184 130.137C794.105 130.318 794.029 130.469 793.955 130.592ZM791.261 133.734C791.449 133.422 791.555 133.044 791.578 132.602C791.635 131.602 791.239 130.846 790.392 130.335L788.904 129.437C788.646 129.738 788.369 130.133 788.073 130.624C788.006 130.735 787.939 130.847 787.871 130.958C787.007 132.566 787.144 133.713 788.281 134.399C788.37 134.453 788.468 134.505 788.575 134.554C789.699 135.111 790.595 134.837 791.261 133.734Z" fill="#FFF8F9"/>
<path d="M797.268 118.304L797.865 118.413C797.849 118.584 797.829 118.719 797.803 118.82C797.781 118.909 797.753 118.996 797.718 119.081C797.446 119.738 796.798 119.938 795.775 119.681L790.944 118.471C790.553 118.373 790.182 118.327 789.831 118.333C788.764 118.361 788.107 118.867 787.86 119.852C787.746 120.307 787.777 120.771 787.954 121.245C788.345 122.256 789.254 122.94 790.681 123.298L796.194 124.679L796.004 125.437L786.532 123.063L786.707 122.362L788.436 122.775C787.347 121.925 786.95 120.886 787.244 119.658C787.342 119.266 787.488 118.927 787.68 118.639C788.354 117.613 789.467 117.295 791.021 117.684L795.852 118.895C796.155 118.971 796.399 119.012 796.586 119.019C796.977 119.009 797.205 118.771 797.268 118.304Z" fill="#FFF8F9"/>
<path d="M797.974 107.037C797.981 107.167 797.981 107.297 797.975 107.428C797.907 108.122 797.453 108.544 796.613 108.692C796.734 108.764 796.856 108.848 796.978 108.946C797.74 109.559 798.145 110.326 798.193 111.25C798.216 111.692 798.166 112.099 798.041 112.47C797.694 113.557 796.831 114.137 795.452 114.208C794.945 114.235 794.469 114.11 794.025 113.833C793.079 113.204 792.563 112.044 792.475 110.354C792.445 109.782 792.453 109.312 792.499 108.944L790.88 109.029C790.62 109.042 790.381 109.081 790.163 109.144C789.213 109.428 788.766 110.11 788.822 111.189C788.865 112.021 789.196 112.871 789.815 113.739L789.209 114.122C788.562 113.217 788.205 112.245 788.138 111.205C788.115 110.763 788.165 110.35 788.289 109.965C788.65 108.89 789.481 108.319 790.781 108.251L795.872 107.987C796.171 107.971 796.417 107.939 796.61 107.89C797.125 107.759 797.369 107.433 797.342 106.913C797.336 106.796 797.324 106.692 797.306 106.602L797.909 106.532C797.945 106.725 797.967 106.894 797.974 107.037ZM797.503 111.149C797.484 110.785 797.361 110.413 797.132 110.034C796.618 109.174 795.867 108.769 794.879 108.821L793.143 108.911C793.098 109.305 793.091 109.787 793.121 110.359C793.127 110.49 793.134 110.62 793.141 110.75C793.326 112.565 794.082 113.439 795.409 113.37C795.513 113.364 795.623 113.352 795.739 113.333C796.982 113.164 797.57 112.436 797.503 111.149Z" fill="#FFF8F9"/>
<path d="M795.229 98.052C795.656 98.4655 795.945 98.8943 796.095 99.3384C796.18 99.6122 796.208 99.8826 796.182 100.15C796.096 101.021 795.48 101.633 794.335 101.985L787.877 103.974L788.371 105.58L787.718 105.781L787.224 104.176L784.704 104.952L784.474 104.205L786.994 103.429L786.264 101.058L786.917 100.857L787.647 103.228L793.881 101.308C794.006 101.269 794.135 101.223 794.268 101.168C795.261 100.767 795.637 100.174 795.396 99.3903C795.304 99.0916 795.099 98.7801 794.781 98.4556L795.229 98.052Z" fill="#FFF8F9"/>
<path d="M791.551 91.2686C791.22 90.7385 790.781 90.3678 790.234 90.1564C789.112 89.7365 787.789 90.0024 786.265 90.9542C785.514 91.4232 784.917 91.942 784.474 92.5105C783.598 93.6406 783.495 94.7412 784.164 95.8125C784.523 96.3868 785.019 96.7755 785.652 96.9786C786.784 97.3157 788.068 97.036 789.504 96.1394C790.232 95.6841 790.813 95.1757 791.245 94.6141C792.132 93.4772 792.233 92.362 791.551 91.2686ZM783.574 96.158C783.147 95.4733 782.954 94.7721 782.997 94.0544C783.079 92.637 784.02 91.3661 785.82 90.2419C786.792 89.6349 787.745 89.2929 788.68 89.216C790.194 89.084 791.348 89.653 792.141 90.9231C792.534 91.5526 792.741 92.191 792.761 92.8383C792.786 94.3276 791.848 95.6654 789.948 96.8517C788.932 97.4862 787.927 97.8303 786.932 97.8838C785.452 97.9481 784.333 97.3729 783.574 96.158Z" fill="#FFF8F9"/>
<path d="M578.469 85.045C574.496 90.4715 575.814 91.1147 578.469 100.978C579.456 104.645 578.816 95.8383 581.883 91.8735C585.538 87.15 595.92 82.7688 595.92 82.7688L589.85 80.872C589.85 80.872 581.79 80.509 578.469 85.045Z" fill="#FFD5E2" stroke="#FFDAE5"/>
</svg>
