<svg width="1440" height="198" viewBox="0 0 1440 198" fill="none" xmlns="http://www.w3.org/2000/svg">
<path d="M767.135 180.036C685.072 196.953 571.468 91.9912 571.468 91.9912L563.525 -1H1439.5V141.979C1329.56 185.009 1374.17 33.9145 1269.4 91.9912C1249.96 102.768 1246.83 141.285 1225.33 141.979C1202.84 142.705 1195.92 129.257 1173.49 127.347C1143.18 124.767 1140.69 143.077 1112.45 156.193C1035.58 191.894 981.859 71.4502 901.045 91.9912C842.435 106.889 826.202 167.86 767.135 180.036Z" fill="#FB758E"/>
<path d="M39 156.193C14 201 -3 141.979 -3 141.979V-1H974.903V105.346C974.903 105.346 938.527 65.9995 895.889 79.687C845.497 95.8634 799.728 172.511 750.172 191.907C640.234 234.937 570.647 33.9145 465.878 91.9912C446.437 102.768 443.302 141.285 421.8 141.979C399.317 142.705 392.393 129.257 369.96 127.347C339.659 124.767 337.163 143.077 308.922 156.193C232.052 191.894 178.333 71.4502 97.5201 91.9912C38.9098 106.889 68.385 103.527 39 156.193Z" fill="#FB758E"/>
<path d="M626.39 35.1871C621.232 39.1184 617.508 46.9234 617.508 46.9234L627.976 37.0903L647.008 30.4292C647.008 30.4292 632.929 30.2034 626.39 35.1871Z" fill="#EED6DD" stroke="#EFD7DE"/>
<mask id="path-4-outside-1_22_274" maskUnits="userSpaceOnUse" x="658.061" y="80.4226" width="162" height="55" fill="black">
<rect fill="white" x="658.061" y="80.4226" width="162" height="55"/>
<path d="M682.161 134.173V125.423C678.801 127.803 675.091 133.193 669.001 133.193C663.681 133.193 659.761 129.483 659.761 124.163C659.761 112.753 675.721 114.503 675.721 111.703C675.721 111.003 674.951 110.933 674.391 110.933C671.171 110.933 663.891 112.893 663.891 106.733C663.891 101.203 673.201 96.7226 679.501 96.7226C685.871 96.7226 690.491 99.4526 690.561 106.173V123.673C690.561 126.333 692.311 128.083 694.971 128.083H695.321V129.483C692.941 129.483 686.781 129.483 682.861 134.173H682.161ZM682.161 123.813V106.313C682.161 96.2326 670.541 97.2826 670.541 103.723C670.541 110.233 677.121 108.973 677.121 111.563C677.121 112.613 676.491 113.383 675.441 113.943C672.781 115.273 668.091 115.903 668.091 121.013C668.091 124.443 670.121 126.753 673.761 126.753C677.751 126.753 680.201 125.283 682.161 123.813ZM693.646 98.8226V97.4226H694.626C701.066 97.4226 704.286 93.2226 704.916 86.3626H706.316V97.4226H715.556V98.8226H706.316V122.763C706.316 127.593 707.086 130.743 711.006 130.743C713.596 130.743 715.486 129.693 717.866 126.753L718.776 127.593C716.956 130.673 713.876 133.193 708.976 133.193C700.296 133.193 697.916 128.293 697.916 120.733V98.8226H693.646ZM747.242 121.643L748.012 121.993C745.422 129.203 738.492 133.123 732.472 133.123C711.052 133.123 709.862 96.7226 732.962 96.7226C740.662 96.7226 747.802 99.8726 747.872 106.873H724.212C722.602 115.343 727.082 126.893 738.212 126.893C741.782 126.893 745.212 125.143 747.242 121.643ZM724.492 105.473H739.892C739.542 101.203 737.932 98.1226 733.032 98.1226C728.552 98.1226 725.682 101.273 724.492 105.473ZM753.79 126.333V92.7326C753.79 90.0726 752.04 88.3226 749.38 88.3226H749.03V86.9226C751.41 86.9226 757.57 86.9226 761.49 82.2326H762.19V126.333C762.19 129.133 764.08 131.023 766.88 131.023H766.95V132.423H749.03V131.023H749.1C751.9 131.023 753.79 129.133 753.79 126.333ZM772.104 89.0926C772.104 86.3626 773.924 84.5426 776.654 84.5426C779.384 84.5426 781.204 86.3626 781.204 89.0926C781.204 91.8226 779.384 93.6426 776.654 93.6426C773.924 93.6426 772.104 91.8226 772.104 89.0926ZM772.384 126.333V106.173C772.384 103.513 770.634 101.763 767.974 101.763H767.624V100.363C770.004 100.363 776.164 100.363 780.084 95.6726H780.784V126.333C780.784 129.133 782.674 131.023 785.474 131.023H785.544V132.423H767.624V131.023H767.694C770.494 131.023 772.384 129.133 772.384 126.333ZM817.858 121.643L818.628 121.993C816.038 129.203 809.108 133.123 803.088 133.123C781.668 133.123 780.478 96.7226 803.578 96.7226C811.278 96.7226 818.418 99.8726 818.488 106.873H794.828C793.218 115.343 797.698 126.893 808.828 126.893C812.398 126.893 815.828 125.143 817.858 121.643ZM795.108 105.473H810.508C810.158 101.203 808.548 98.1226 803.648 98.1226C799.168 98.1226 796.298 101.273 795.108 105.473Z"/>
</mask>
<path d="M682.161 134.173V125.423C678.801 127.803 675.091 133.193 669.001 133.193C663.681 133.193 659.761 129.483 659.761 124.163C659.761 112.753 675.721 114.503 675.721 111.703C675.721 111.003 674.951 110.933 674.391 110.933C671.171 110.933 663.891 112.893 663.891 106.733C663.891 101.203 673.201 96.7226 679.501 96.7226C685.871 96.7226 690.491 99.4526 690.561 106.173V123.673C690.561 126.333 692.311 128.083 694.971 128.083H695.321V129.483C692.941 129.483 686.781 129.483 682.861 134.173H682.161ZM682.161 123.813V106.313C682.161 96.2326 670.541 97.2826 670.541 103.723C670.541 110.233 677.121 108.973 677.121 111.563C677.121 112.613 676.491 113.383 675.441 113.943C672.781 115.273 668.091 115.903 668.091 121.013C668.091 124.443 670.121 126.753 673.761 126.753C677.751 126.753 680.201 125.283 682.161 123.813ZM693.646 98.8226V97.4226H694.626C701.066 97.4226 704.286 93.2226 704.916 86.3626H706.316V97.4226H715.556V98.8226H706.316V122.763C706.316 127.593 707.086 130.743 711.006 130.743C713.596 130.743 715.486 129.693 717.866 126.753L718.776 127.593C716.956 130.673 713.876 133.193 708.976 133.193C700.296 133.193 697.916 128.293 697.916 120.733V98.8226H693.646ZM747.242 121.643L748.012 121.993C745.422 129.203 738.492 133.123 732.472 133.123C711.052 133.123 709.862 96.7226 732.962 96.7226C740.662 96.7226 747.802 99.8726 747.872 106.873H724.212C722.602 115.343 727.082 126.893 738.212 126.893C741.782 126.893 745.212 125.143 747.242 121.643ZM724.492 105.473H739.892C739.542 101.203 737.932 98.1226 733.032 98.1226C728.552 98.1226 725.682 101.273 724.492 105.473ZM753.79 126.333V92.7326C753.79 90.0726 752.04 88.3226 749.38 88.3226H749.03V86.9226C751.41 86.9226 757.57 86.9226 761.49 82.2326H762.19V126.333C762.19 129.133 764.08 131.023 766.88 131.023H766.95V132.423H749.03V131.023H749.1C751.9 131.023 753.79 129.133 753.79 126.333ZM772.104 89.0926C772.104 86.3626 773.924 84.5426 776.654 84.5426C779.384 84.5426 781.204 86.3626 781.204 89.0926C781.204 91.8226 779.384 93.6426 776.654 93.6426C773.924 93.6426 772.104 91.8226 772.104 89.0926ZM772.384 126.333V106.173C772.384 103.513 770.634 101.763 767.974 101.763H767.624V100.363C770.004 100.363 776.164 100.363 780.084 95.6726H780.784V126.333C780.784 129.133 782.674 131.023 785.474 131.023H785.544V132.423H767.624V131.023H767.694C770.494 131.023 772.384 129.133 772.384 126.333ZM817.858 121.643L818.628 121.993C816.038 129.203 809.108 133.123 803.088 133.123C781.668 133.123 780.478 96.7226 803.578 96.7226C811.278 96.7226 818.418 99.8726 818.488 106.873H794.828C793.218 115.343 797.698 126.893 808.828 126.893C812.398 126.893 815.828 125.143 817.858 121.643ZM795.108 105.473H810.508C810.158 101.203 808.548 98.1226 803.648 98.1226C799.168 98.1226 796.298 101.273 795.108 105.473Z" fill="#FFF8F9"/>
<path d="M682.161 134.173H681.161V135.173H682.161V134.173ZM682.161 125.423H683.161V123.489L681.583 124.607L682.161 125.423ZM690.561 106.173L691.561 106.173L691.561 106.162L690.561 106.173ZM695.321 128.083H696.321V127.083H695.321V128.083ZM695.321 129.483V130.483H696.321V129.483H695.321ZM682.861 134.173V135.173H683.329L683.628 134.814L682.861 134.173ZM682.161 123.813L682.761 124.613L683.161 124.313V123.813H682.161ZM675.441 113.943L675.888 114.837L675.9 114.831L675.912 114.825L675.441 113.943ZM682.161 134.173H683.161V125.423H682.161H681.161V134.173H682.161ZM682.161 125.423L681.583 124.607C680.682 125.244 679.774 126.072 678.868 126.904C677.945 127.751 677.006 128.618 675.99 129.412C673.963 130.993 671.728 132.193 669.001 132.193V133.193V134.193C672.364 134.193 675.029 132.697 677.22 130.989C678.312 130.137 679.312 129.211 680.22 128.378C681.144 127.529 681.96 126.791 682.739 126.239L682.161 125.423ZM669.001 133.193V132.193C664.202 132.193 660.761 128.9 660.761 124.163H659.761H658.761C658.761 130.065 663.16 134.193 669.001 134.193V133.193ZM659.761 124.163H660.761C660.761 121.576 661.653 119.802 662.959 118.506C664.297 117.179 666.124 116.301 668.059 115.652C670.027 114.992 671.896 114.626 673.49 114.191C674.243 113.986 674.969 113.754 675.521 113.448C676.046 113.157 676.721 112.618 676.721 111.703H675.721H674.721C674.721 111.487 674.898 111.506 674.55 111.7C674.228 111.878 673.708 112.059 672.964 112.261C671.566 112.643 669.445 113.077 667.423 113.756C665.368 114.445 663.205 115.445 661.551 117.086C659.864 118.759 658.761 121.044 658.761 124.163H659.761ZM675.721 111.703H676.721C676.721 111.332 676.614 110.975 676.384 110.676C676.163 110.39 675.881 110.224 675.637 110.127C675.181 109.944 674.677 109.933 674.391 109.933V110.933V111.933C674.513 111.933 674.623 111.937 674.72 111.948C674.82 111.959 674.874 111.975 674.895 111.984C674.913 111.991 674.859 111.974 674.8 111.897C674.77 111.859 674.748 111.816 674.735 111.775C674.722 111.734 674.721 111.707 674.721 111.703H675.721ZM674.391 110.933V109.933C673.535 109.933 672.386 110.063 671.315 110.146C670.191 110.232 669.064 110.277 668.059 110.15C667.047 110.023 666.275 109.736 665.76 109.256C665.276 108.804 664.891 108.063 664.891 106.733H663.891H662.891C662.891 108.482 663.416 109.806 664.397 110.719C665.348 111.605 666.597 111.982 667.809 112.135C669.026 112.288 670.322 112.228 671.469 112.14C672.669 112.047 673.637 111.933 674.391 111.933V110.933ZM663.891 106.733H664.891C664.891 104.534 666.789 102.29 669.836 100.518C672.819 98.7836 676.55 97.7226 679.501 97.7226V96.7226V95.7226C676.152 95.7226 672.078 96.9015 668.831 98.7893C665.648 100.64 662.891 103.401 662.891 106.733H663.891ZM679.501 96.7226V97.7226C682.564 97.7226 685.061 98.3821 686.78 99.7173C688.458 101.021 689.529 103.073 689.561 106.183L690.561 106.173L691.561 106.162C691.523 102.552 690.249 99.8791 688.007 98.1378C685.806 96.4281 682.808 95.7226 679.501 95.7226V96.7226ZM690.561 106.173H689.561V123.673H690.561H691.561V106.173H690.561ZM690.561 123.673H689.561C689.561 125.226 690.077 126.597 691.061 127.582C692.046 128.567 693.417 129.083 694.971 129.083V128.083V127.083C693.865 127.083 693.031 126.723 692.476 126.168C691.921 125.613 691.561 124.779 691.561 123.673H690.561ZM694.971 128.083V129.083H695.321V128.083V127.083H694.971V128.083ZM695.321 128.083H694.321V129.483H695.321H696.321V128.083H695.321ZM695.321 129.483V128.483C692.981 128.483 686.346 128.444 682.094 133.531L682.861 134.173L683.628 134.814C687.216 130.521 692.902 130.483 695.321 130.483V129.483ZM682.861 134.173V133.173H682.161V134.173V135.173H682.861V134.173ZM682.161 123.813H683.161V106.313H682.161H681.161V123.813H682.161ZM682.161 106.313H683.161C683.161 103.596 682.375 101.519 681.091 100.083C679.811 98.6514 678.105 97.9366 676.417 97.8248C673.121 97.6063 669.541 99.7533 669.541 103.723H670.541H671.541C671.541 101.252 673.771 99.6538 676.285 99.8204C677.502 99.901 678.701 100.411 679.6 101.416C680.495 102.417 681.161 103.989 681.161 106.313H682.161ZM670.541 103.723H669.541C669.541 105.53 670.002 106.888 670.764 107.923C671.515 108.942 672.496 109.563 673.384 110.007C673.825 110.228 674.265 110.415 674.641 110.578C675.033 110.747 675.346 110.887 675.602 111.031C676.12 111.324 676.121 111.47 676.121 111.563H677.121H678.121C678.121 110.361 677.299 109.693 676.584 109.289C676.223 109.086 675.817 108.907 675.437 108.743C675.042 108.572 674.659 108.409 674.278 108.218C673.521 107.84 672.857 107.393 672.374 106.737C671.903 106.096 671.541 105.17 671.541 103.723H670.541ZM677.121 111.563H676.121C676.121 112.111 675.831 112.601 674.97 113.06L675.441 113.943L675.912 114.825C677.151 114.164 678.121 113.114 678.121 111.563H677.121ZM675.441 113.943L674.994 113.048C674.378 113.356 673.657 113.618 672.799 113.961C671.974 114.292 671.066 114.683 670.23 115.218C669.387 115.757 668.591 116.458 668.009 117.423C667.424 118.394 667.091 119.574 667.091 121.013H668.091H669.091C669.091 119.896 669.345 119.081 669.722 118.455C670.103 117.823 670.645 117.326 671.307 116.903C671.977 116.475 672.739 116.14 673.542 115.818C674.311 115.51 675.174 115.194 675.888 114.837L675.441 113.943ZM668.091 121.013H667.091C667.091 122.922 667.659 124.627 668.838 125.86C670.025 127.1 671.723 127.753 673.761 127.753V126.753V125.753C672.159 125.753 671.022 125.25 670.284 124.478C669.538 123.698 669.091 122.533 669.091 121.013H668.091ZM673.761 126.753V127.753C678.049 127.753 680.707 126.153 682.761 124.613L682.161 123.813L681.561 123.013C679.695 124.412 677.453 125.753 673.761 125.753V126.753ZM693.646 98.8226H692.646V99.8226H693.646V98.8226ZM693.646 97.4226V96.4226H692.646V97.4226H693.646ZM704.916 86.3626V85.3626H704.004L703.92 86.2711L704.916 86.3626ZM706.316 86.3626H707.316V85.3626H706.316V86.3626ZM706.316 97.4226H705.316V98.4226H706.316V97.4226ZM715.556 97.4226H716.556V96.4226H715.556V97.4226ZM715.556 98.8226V99.8226H716.556V98.8226H715.556ZM706.316 98.8226V97.8226H705.316V98.8226H706.316ZM717.866 126.753L718.544 126.018L717.76 125.294L717.089 126.123L717.866 126.753ZM718.776 127.593L719.637 128.101L720.048 127.406L719.454 126.858L718.776 127.593ZM697.916 98.8226H698.916V97.8226H697.916V98.8226ZM693.646 98.8226H694.646V97.4226H693.646H692.646V98.8226H693.646ZM693.646 97.4226V98.4226H694.626V97.4226V96.4226H693.646V97.4226ZM694.626 97.4226V98.4226C698.083 98.4226 700.789 97.2843 702.698 95.1279C704.58 93.0029 705.586 90.0025 705.912 86.454L704.916 86.3626L703.92 86.2711C703.616 89.5827 702.697 92.1123 701.201 93.8022C699.733 95.4608 697.609 96.4226 694.626 96.4226V97.4226ZM704.916 86.3626V87.3626H706.316V86.3626V85.3626H704.916V86.3626ZM706.316 86.3626H705.316V97.4226H706.316H707.316V86.3626H706.316ZM706.316 97.4226V98.4226H715.556V97.4226V96.4226H706.316V97.4226ZM715.556 97.4226H714.556V98.8226H715.556H716.556V97.4226H715.556ZM715.556 98.8226V97.8226H706.316V98.8226V99.8226H715.556V98.8226ZM706.316 98.8226H705.316V122.763H706.316H707.316V98.8226H706.316ZM706.316 122.763H705.316C705.316 125.18 705.499 127.385 706.293 129.004C706.704 129.842 707.29 130.548 708.108 131.034C708.922 131.518 709.892 131.743 711.006 131.743V130.743V129.743C710.16 129.743 709.564 129.573 709.131 129.315C708.702 129.061 708.36 128.677 708.089 128.123C707.518 126.96 707.316 125.176 707.316 122.763H706.316ZM711.006 130.743V131.743C712.452 131.743 713.749 131.445 715.014 130.717C716.257 130.001 717.415 128.899 718.643 127.382L717.866 126.753L717.089 126.123C715.937 127.546 714.96 128.44 714.016 128.984C713.093 129.515 712.15 129.743 711.006 129.743V130.743ZM717.866 126.753L717.188 127.487L718.098 128.327L718.776 127.593L719.454 126.858L718.544 126.018L717.866 126.753ZM718.776 127.593L717.915 127.084C716.239 129.92 713.457 132.193 708.976 132.193V133.193V134.193C714.294 134.193 717.673 131.425 719.637 128.101L718.776 127.593ZM708.976 133.193V132.193C704.825 132.193 702.409 131.029 700.982 129.185C699.51 127.284 698.916 124.449 698.916 120.733H697.916H696.916C696.916 124.577 697.512 127.971 699.4 130.41C701.333 132.906 704.447 134.193 708.976 134.193V133.193ZM697.916 120.733H698.916V98.8226H697.916H696.916V120.733H697.916ZM697.916 98.8226V97.8226H693.646V98.8226V99.8226H697.916V98.8226ZM747.242 121.643L747.656 120.732L746.832 120.357L746.377 121.141L747.242 121.643ZM748.012 121.993L748.954 122.331L749.265 121.463L748.426 121.082L748.012 121.993ZM747.872 106.873V107.873H748.882L748.872 106.863L747.872 106.873ZM724.212 106.873V105.873H723.385L723.23 106.686L724.212 106.873ZM724.492 105.473L723.53 105.2L723.17 106.473H724.492V105.473ZM739.892 105.473V106.473H740.978L740.889 105.391L739.892 105.473ZM747.242 121.643L746.829 122.553L747.599 122.903L748.012 121.993L748.426 121.082L747.656 120.732L747.242 121.643ZM748.012 121.993L747.071 121.655C744.636 128.433 738.108 132.123 732.472 132.123V133.123V134.123C738.877 134.123 746.209 129.972 748.954 122.331L748.012 121.993ZM732.472 133.123V132.123C727.433 132.123 723.623 129.995 721.041 126.806C718.441 123.594 717.064 119.272 717.022 114.913C716.98 110.554 718.274 106.245 720.901 103.045C723.508 99.8699 727.478 97.7226 732.962 97.7226V96.7226V95.7226C726.897 95.7226 722.353 98.1252 719.356 101.775C716.379 105.401 714.977 110.191 715.022 114.932C715.068 119.673 716.561 124.451 719.487 128.064C722.431 131.701 726.802 134.123 732.472 134.123V133.123ZM732.962 96.7226V97.7226C736.697 97.7226 740.21 98.4897 742.762 100.029C745.275 101.544 746.842 103.787 746.872 106.883L747.872 106.873L748.872 106.863C748.833 102.958 746.795 100.126 743.795 98.3163C740.835 96.5305 736.928 95.7226 732.962 95.7226V96.7226ZM747.872 106.873V105.873H724.212V106.873V107.873H747.872V106.873ZM724.212 106.873L723.23 106.686C722.383 111.143 723.132 116.396 725.572 120.564C728.034 124.77 732.241 127.893 738.212 127.893V126.893V125.893C733.054 125.893 729.456 123.24 727.298 119.554C725.118 115.829 724.432 111.072 725.195 107.059L724.212 106.873ZM738.212 126.893V127.893C742.122 127.893 745.89 125.967 748.107 122.144L747.242 121.643L746.377 121.141C744.535 124.318 741.443 125.893 738.212 125.893V126.893ZM724.492 105.473V106.473H739.892V105.473V104.473H724.492V105.473ZM739.892 105.473L740.889 105.391C740.708 103.181 740.192 101.102 738.945 99.5659C737.655 97.9778 735.712 97.1226 733.032 97.1226V98.1226V99.1226C735.253 99.1226 736.565 99.8073 737.392 100.827C738.263 101.898 738.727 103.494 738.896 105.554L739.892 105.473ZM733.032 98.1226V97.1226C727.954 97.1226 724.796 100.735 723.53 105.2L724.492 105.473L725.455 105.745C726.569 101.811 729.151 99.1226 733.032 99.1226V98.1226ZM749.03 88.3226H748.03V89.3226H749.03V88.3226ZM749.03 86.9226V85.9226H748.03V86.9226H749.03ZM761.49 82.2326V81.2326H761.023L760.723 81.5913L761.49 82.2326ZM762.19 82.2326H763.19V81.2326H762.19V82.2326ZM766.95 131.023H767.95V130.023H766.95V131.023ZM766.95 132.423V133.423H767.95V132.423H766.95ZM749.03 132.423H748.03V133.423H749.03V132.423ZM749.03 131.023V130.023H748.03V131.023H749.03ZM753.79 126.333H754.79V92.7326H753.79H752.79V126.333H753.79ZM753.79 92.7326H754.79C754.79 91.1787 754.275 89.8078 753.29 88.823C752.305 87.8381 750.934 87.3226 749.38 87.3226V88.3226V89.3226C750.486 89.3226 751.32 89.682 751.876 90.2372C752.431 90.7923 752.79 91.6265 752.79 92.7326H753.79ZM749.38 88.3226V87.3226H749.03V88.3226V89.3226H749.38V88.3226ZM749.03 88.3226H750.03V86.9226H749.03H748.03V88.3226H749.03ZM749.03 86.9226V87.9226C751.371 87.9226 758.005 87.9614 762.257 82.8739L761.49 82.2326L760.723 81.5913C757.135 85.8838 751.45 85.9226 749.03 85.9226V86.9226ZM761.49 82.2326V83.2326H762.19V82.2326V81.2326H761.49V82.2326ZM762.19 82.2326H761.19V126.333H762.19H763.19V82.2326H762.19ZM762.19 126.333H761.19C761.19 127.963 761.745 129.401 762.778 130.435C763.811 131.468 765.25 132.023 766.88 132.023V131.023V130.023C765.711 130.023 764.804 129.632 764.192 129.02C763.581 128.409 763.19 127.502 763.19 126.333H762.19ZM766.88 131.023V132.023H766.95V131.023V130.023H766.88V131.023ZM766.95 131.023H765.95V132.423H766.95H767.95V131.023H766.95ZM766.95 132.423V131.423H749.03V132.423V133.423H766.95V132.423ZM749.03 132.423H750.03V131.023H749.03H748.03V132.423H749.03ZM749.03 131.023V132.023H749.1V131.023V130.023H749.03V131.023ZM749.1 131.023V132.023C750.731 132.023 752.169 131.468 753.202 130.435C754.236 129.401 754.79 127.963 754.79 126.333H753.79H752.79C752.79 127.502 752.4 128.409 751.788 129.02C751.176 129.632 750.27 130.023 749.1 130.023V131.023ZM767.624 101.763H766.624V102.763H767.624V101.763ZM767.624 100.363V99.3626H766.624V100.363H767.624ZM780.084 95.6726V94.6726H779.616L779.317 95.0313L780.084 95.6726ZM780.784 95.6726H781.784V94.6726H780.784V95.6726ZM785.544 131.023H786.544V130.023H785.544V131.023ZM785.544 132.423V133.423H786.544V132.423H785.544ZM767.624 132.423H766.624V133.423H767.624V132.423ZM767.624 131.023V130.023H766.624V131.023H767.624ZM772.104 89.0926H773.104C773.104 87.9548 773.479 87.0844 774.062 86.5009C774.646 85.9175 775.516 85.5426 776.654 85.5426V84.5426V83.5426C775.062 83.5426 773.657 84.0777 772.648 85.0867C771.639 86.0957 771.104 87.5003 771.104 89.0926H772.104ZM776.654 84.5426V85.5426C777.792 85.5426 778.662 85.9175 779.246 86.5009C779.829 87.0844 780.204 87.9548 780.204 89.0926H781.204H782.204C782.204 87.5003 781.669 86.0957 780.66 85.0867C779.651 84.0777 778.246 83.5426 776.654 83.5426V84.5426ZM781.204 89.0926H780.204C780.204 90.2303 779.829 91.1007 779.246 91.6842C778.662 92.2677 777.792 92.6426 776.654 92.6426V93.6426V94.6426C778.246 94.6426 779.651 94.1075 780.66 93.0984C781.669 92.0894 782.204 90.6848 782.204 89.0926H781.204ZM776.654 93.6426V92.6426C775.516 92.6426 774.646 92.2677 774.062 91.6842C773.479 91.1007 773.104 90.2303 773.104 89.0926H772.104H771.104C771.104 90.6848 771.639 92.0894 772.648 93.0984C773.657 94.1075 775.062 94.6426 776.654 94.6426V93.6426ZM772.384 126.333H773.384V106.173H772.384H771.384V126.333H772.384ZM772.384 106.173H773.384C773.384 104.619 772.868 103.248 771.884 102.263C770.899 101.278 769.528 100.763 767.974 100.763V101.763V102.763C769.08 102.763 769.914 103.122 770.469 103.677C771.024 104.232 771.384 105.066 771.384 106.173H772.384ZM767.974 101.763V100.763H767.624V101.763V102.763H767.974V101.763ZM767.624 101.763H768.624V100.363H767.624H766.624V101.763H767.624ZM767.624 100.363V101.363C769.964 101.363 776.599 101.401 780.851 96.3139L780.084 95.6726L779.317 95.0313C775.729 99.3238 770.043 99.3626 767.624 99.3626V100.363ZM780.084 95.6726V96.6726H780.784V95.6726V94.6726H780.084V95.6726ZM780.784 95.6726H779.784V126.333H780.784H781.784V95.6726H780.784ZM780.784 126.333H779.784C779.784 127.963 780.339 129.401 781.372 130.435C782.405 131.468 783.844 132.023 785.474 132.023V131.023V130.023C784.304 130.023 783.398 129.632 782.786 129.02C782.174 128.409 781.784 127.502 781.784 126.333H780.784ZM785.474 131.023V132.023H785.544V131.023V130.023H785.474V131.023ZM785.544 131.023H784.544V132.423H785.544H786.544V131.023H785.544ZM785.544 132.423V131.423H767.624V132.423V133.423H785.544V132.423ZM767.624 132.423H768.624V131.023H767.624H766.624V132.423H767.624ZM767.624 131.023V132.023H767.694V131.023V130.023H767.624V131.023ZM767.694 131.023V132.023C769.324 132.023 770.763 131.468 771.796 130.435C772.829 129.401 773.384 127.963 773.384 126.333H772.384H771.384C771.384 127.502 770.994 128.409 770.382 129.02C769.77 129.632 768.864 130.023 767.694 130.023V131.023ZM817.858 121.643L818.271 120.732L817.447 120.357L816.993 121.141L817.858 121.643ZM818.628 121.993L819.569 122.331L819.88 121.463L819.041 121.082L818.628 121.993ZM818.488 106.873V107.873H819.498L819.488 106.863L818.488 106.873ZM794.828 106.873V105.873H794L793.845 106.686L794.828 106.873ZM795.108 105.473L794.146 105.2L793.785 106.473H795.108V105.473ZM810.508 105.473V106.473H811.593L811.504 105.391L810.508 105.473ZM817.858 121.643L817.444 122.553L818.214 122.903L818.628 121.993L819.041 121.082L818.271 120.732L817.858 121.643ZM818.628 121.993L817.687 121.655C815.252 128.433 808.724 132.123 803.088 132.123V133.123V134.123C809.492 134.123 816.824 129.972 819.569 122.331L818.628 121.993ZM803.088 133.123V132.123C798.048 132.123 794.238 129.995 791.656 126.806C789.056 123.594 787.68 119.272 787.638 114.913C787.596 110.554 788.889 106.245 791.516 103.045C794.123 99.8699 798.094 97.7226 803.578 97.7226V96.7226V95.7226C797.512 95.7226 792.968 98.1252 789.971 101.775C786.994 105.401 785.592 110.191 785.638 114.932C785.683 119.673 787.177 124.451 790.102 128.064C793.046 131.701 797.417 134.123 803.088 134.123V133.123ZM803.578 96.7226V97.7226C807.312 97.7226 810.826 98.4897 813.377 100.029C815.89 101.544 817.457 103.787 817.488 106.883L818.488 106.873L819.488 106.863C819.449 102.958 817.41 100.126 814.41 98.3163C811.45 96.5305 807.543 95.7226 803.578 95.7226V96.7226ZM818.488 106.873V105.873H794.828V106.873V107.873H818.488V106.873ZM794.828 106.873L793.845 106.686C792.998 111.143 793.747 116.396 796.187 120.564C798.649 124.77 802.856 127.893 808.828 127.893V126.893V125.893C803.669 125.893 800.071 123.24 797.913 119.554C795.733 115.829 795.047 111.072 795.81 107.059L794.828 106.873ZM808.828 126.893V127.893C812.738 127.893 816.506 125.967 818.723 122.144L817.858 121.643L816.993 121.141C815.15 124.318 812.058 125.893 808.828 125.893V126.893ZM795.108 105.473V106.473H810.508V105.473V104.473H795.108V105.473ZM810.508 105.473L811.504 105.391C811.323 103.181 810.807 101.102 809.56 99.5659C808.271 97.9778 806.327 97.1226 803.648 97.1226V98.1226V99.1226C805.868 99.1226 807.18 99.8073 808.008 100.827C808.878 101.898 809.342 103.494 809.511 105.554L810.508 105.473ZM803.648 98.1226V97.1226C798.57 97.1226 795.411 100.735 794.146 105.2L795.108 105.473L796.07 105.745C797.185 101.811 799.766 99.1226 803.648 99.1226V98.1226Z" fill="#FFF9FA" mask="url(#path-4-outside-1_22_274)"/>
<path d="M727.145 90.6328L726.965 90.3628C728.315 88.3828 730.835 85.4128 732.185 83.5228H732.725C733.895 85.0528 737.045 88.9228 738.035 90.3628L737.855 90.6328L732.455 88.2928L727.145 90.6328Z" fill="#FFF8F9"/>
<path d="M635.906 36.1387L624.279 41.531L630.513 52.0498C630.513 52.0498 629.886 43.895 631.835 41.3043C632.942 39.8328 635.906 36.1387 635.906 36.1387Z" fill="#FFCFD8" stroke="#FFD0D9"/>
<path d="M620.317 62.8404L631.148 62.1488C631.148 62.1488 631.93 55.8849 630.831 52.3157C630.203 50.2773 627.024 46.9233 627.024 46.9233C627.024 46.9233 627.039 55.9944 624.804 58.3424C623.534 59.6761 620.317 62.8404 620.317 62.8404Z" fill="#FFCED6" stroke="#FFD4DB"/>
<path d="M652.499 32.3552C647.103 28.8178 644.266 31.0804 637.95 34.6607C636.461 35.5043 635.941 35.9194 636.102 36.1387C637.175 35.8215 642.239 35.8505 647.089 38.4122C650.773 40.3585 656.387 45.9367 656.387 45.9367C656.387 45.9367 657.375 35.5514 652.499 32.3552Z" fill="#FFEEF1" stroke="#FFF6F8"/>
<path d="M616.984 64.0519C618.253 73.2506 636.65 78.9601 636.65 78.9601L625.548 65.9551L619.782 50.4125C619.782 50.4125 618.57 47.5577 618.57 45.6545C618.57 45.0352 617.632 46.3149 617.508 46.9234C616.964 49.602 616.113 57.7393 616.984 64.0519Z" fill="#FFF0F8" stroke="#FFDFEF"/>
<path d="M650.289 56.1568C653.605 56.5192 656.313 58.1778 658.219 60.9147C660.202 63.7608 658.219 69.7962 658.219 69.7962C658.219 69.7962 654.287 76.0483 650.289 78.0433C644.969 80.6981 640.442 80.5792 635.064 78.0433C629.482 75.4112 627.258 71.5014 625.231 65.6727C623.999 62.1317 622.376 56.1568 622.376 56.1568C622.376 56.1568 630.478 63.1935 636.016 63.7695C642.034 64.3954 644.275 55.4994 650.289 56.1568Z" fill="white" stroke="white"/>
<circle cx="650.161" cy="65.1925" r="4.57514" transform="rotate(41.9717 650.161 65.1925)" fill="#E64B7B" stroke="#E64B7B"/>
<path d="M647.049 65.8063C647.639 66.3368 649.501 65.452 649.501 65.452C649.501 65.452 649.353 67.3479 650.068 67.6681C651.11 68.1348 652.063 67.0451 652.448 65.9699C652.842 64.8697 652.491 63.8752 651.622 63.0937C650.754 62.3122 649.754 62.1259 648.675 62.5758C647.372 63.1196 646.342 65.1699 647.049 65.8063Z" fill="white" stroke="white"/>
<path d="M628.72 73.885C626.914 71.4158 624.914 65.9551 624.914 65.9551C624.914 65.9551 630.039 69.7698 632.209 72.299C633.791 74.1417 637.15 77.2495 638.761 78.9601C653.669 79.7664 639.505 80.2289 639.505 80.2289C639.505 80.2289 636.352 79.5635 633.478 78.0086C631.293 76.826 629.719 75.2507 628.72 73.885Z" fill="#FFE9EE"/>
<path d="M639.505 80.2289C639.505 80.2289 636.352 79.5635 633.478 78.0086M639.505 80.2289C639.505 80.2289 635.708 79.0568 633.478 78.0086M639.505 80.2289C639.505 80.2289 653.669 79.7664 638.761 78.9601M639.505 80.2289C639.505 80.2289 639.175 79.3989 638.761 78.9601M633.478 78.0086C631.293 76.826 629.719 75.2507 628.72 73.885C626.914 71.4158 624.914 65.9551 624.914 65.9551C624.914 65.9551 630.039 69.7698 632.209 72.299C633.791 74.1417 637.15 77.2495 638.761 78.9601" stroke="#FFE8ED"/>
<path d="M658.427 45.3931C668.543 36.9734 685.705 46.2889 685.705 46.2889M658.427 45.3931C658.427 45.3931 664.381 44.8089 670.797 48.8264C675.676 51.8812 676.507 54.8531 676.507 54.8531M658.427 45.3931C653.351 47.5661 650.863 54.0861 647.642 57.0736C651.73 53.4522 658.427 45.3931 658.427 45.3931Z" stroke="#FFE5EB"/>
<path d="M683.149 52.6793C684.429 54.132 686.24 52.0748 686.24 52.0748C686.24 52.0748 687.504 55.1679 689.38 53.8983C690.849 52.9048 689.185 50.2568 689.185 50.2568C689.185 50.2568 692.845 51.0942 691.9 47.944C691.378 46.2046 688.786 47.2106 688.786 47.2106C688.786 47.2106 689.225 44.0559 687.332 43.9695C685.439 43.883 685.376 46.8745 685.376 46.8745C685.376 46.8745 683.77 45.1608 682.438 47.0325C681.249 48.7037 683.804 49.8279 683.804 49.8279C683.804 49.8279 681.995 51.3698 683.149 52.6793Z" fill="#FFD9E1" stroke="#FFD9E1"/>
<mask id="path-18-outside-2_22_274" maskUnits="userSpaceOnUse" x="658.315" y="52.5845" width="61" height="30" fill="black">
<rect fill="white" x="658.315" y="52.5845" width="61" height="30"/>
<path fill-rule="evenodd" clip-rule="evenodd" d="M662.766 75.8136V61.1972C662.766 59.2686 661.497 57.9998 659.569 57.9998H659.315V56.9848C661.04 56.9848 665.506 56.9848 668.349 53.5845H668.856V59.6239C671.089 56.7818 674.083 54.3457 677.535 54.3457C683.828 54.3457 683.878 61.5524 678.245 62.9735C678.312 62.6432 678.359 62.3252 678.385 62.0214C679.368 62.118 680.609 61.8645 680.285 59.8424C679.997 58.0493 677.296 58.7034 677.296 58.7034C677.296 58.7034 678.149 55.6346 676.284 55.2984C674.419 54.9621 673.96 57.919 673.96 57.919C673.96 57.919 672.595 56.0077 671.027 57.6867C670.444 58.3115 670.518 58.9282 670.802 59.435C670.061 59.9047 669.385 60.5574 668.856 61.4509V75.8136C668.856 77.8436 670.226 79.2139 672.256 79.2139H672.307V80.2289H659.315V79.2139H659.366C661.396 79.2139 662.766 77.8436 662.766 75.8136ZM686.11 75.8136V61.1972C686.11 59.2686 684.841 57.9998 682.912 57.9998H682.658V56.9848C684.384 56.9848 688.85 56.9848 691.692 53.5845H692.2V75.8136C692.2 77.8436 693.57 79.2139 695.6 79.2139H695.651V80.2289H682.658V79.2139H682.709C684.739 79.2139 686.11 77.8436 686.11 75.8136ZM696.647 74.8493C696.647 79.2647 702.28 80.7364 706.696 80.7364C710.959 80.7364 717.404 79.0617 717.404 73.5805C717.404 67.9856 712.576 66.191 708.269 64.5902C704.801 63.3013 701.671 62.138 701.671 59.2179C701.671 56.6803 704.006 55.3608 706.239 55.3608C709.69 55.3608 713.039 57.5938 714.308 63.3795H715.323L714.765 53.889H714.461L714.004 54.1427C712.47 54.9794 710.649 54.7624 708.82 54.5446C707.986 54.4452 707.151 54.3457 706.34 54.3457C701.265 54.3457 696.698 56.7818 696.698 61.3494C696.698 66.3956 701.005 68.1497 705.014 69.7824C708.505 71.204 711.771 72.5337 711.771 75.8643C711.771 78.2496 710.045 79.7214 707.051 79.7214C702.077 79.7214 700.91 74.1895 704.107 72.7177C701.011 69.3174 696.647 71.6012 696.647 74.8493Z"/>
</mask>
<path fill-rule="evenodd" clip-rule="evenodd" d="M662.766 75.8136V61.1972C662.766 59.2686 661.497 57.9998 659.569 57.9998H659.315V56.9848C661.04 56.9848 665.506 56.9848 668.349 53.5845H668.856V59.6239C671.089 56.7818 674.083 54.3457 677.535 54.3457C683.828 54.3457 683.878 61.5524 678.245 62.9735C678.312 62.6432 678.359 62.3252 678.385 62.0214C679.368 62.118 680.609 61.8645 680.285 59.8424C679.997 58.0493 677.296 58.7034 677.296 58.7034C677.296 58.7034 678.149 55.6346 676.284 55.2984C674.419 54.9621 673.96 57.919 673.96 57.919C673.96 57.919 672.595 56.0077 671.027 57.6867C670.444 58.3115 670.518 58.9282 670.802 59.435C670.061 59.9047 669.385 60.5574 668.856 61.4509V75.8136C668.856 77.8436 670.226 79.2139 672.256 79.2139H672.307V80.2289H659.315V79.2139H659.366C661.396 79.2139 662.766 77.8436 662.766 75.8136ZM686.11 75.8136V61.1972C686.11 59.2686 684.841 57.9998 682.912 57.9998H682.658V56.9848C684.384 56.9848 688.85 56.9848 691.692 53.5845H692.2V75.8136C692.2 77.8436 693.57 79.2139 695.6 79.2139H695.651V80.2289H682.658V79.2139H682.709C684.739 79.2139 686.11 77.8436 686.11 75.8136ZM696.647 74.8493C696.647 79.2647 702.28 80.7364 706.696 80.7364C710.959 80.7364 717.404 79.0617 717.404 73.5805C717.404 67.9856 712.576 66.191 708.269 64.5902C704.801 63.3013 701.671 62.138 701.671 59.2179C701.671 56.6803 704.006 55.3608 706.239 55.3608C709.69 55.3608 713.039 57.5938 714.308 63.3795H715.323L714.765 53.889H714.461L714.004 54.1427C712.47 54.9794 710.649 54.7624 708.82 54.5446C707.986 54.4452 707.151 54.3457 706.34 54.3457C701.265 54.3457 696.698 56.7818 696.698 61.3494C696.698 66.3956 701.005 68.1497 705.014 69.7824C708.505 71.204 711.771 72.5337 711.771 75.8643C711.771 78.2496 710.045 79.7214 707.051 79.7214C702.077 79.7214 700.91 74.1895 704.107 72.7177C701.011 69.3174 696.647 71.6012 696.647 74.8493Z" fill="#FFF8F9"/>
<path d="M659.315 57.9998H658.315V58.9998H659.315V57.9998ZM659.315 56.9848V55.9848H658.315V56.9848H659.315ZM668.349 53.5845V52.5845H667.881L667.581 52.9432L668.349 53.5845ZM668.856 53.5845H669.856V52.5845H668.856V53.5845ZM668.856 59.6239H667.856V62.5152L669.642 60.2417L668.856 59.6239ZM678.245 62.9735L677.265 62.7739L676.948 64.332L678.49 63.9431L678.245 62.9735ZM678.385 62.0214L678.483 61.0262L677.472 60.9269L677.388 61.9383L678.385 62.0214ZM680.285 59.8424L679.297 60.0006L679.297 60.0006L680.285 59.8424ZM677.296 58.7034L676.332 58.4356L675.876 60.0759L677.531 59.6753L677.296 58.7034ZM673.96 57.919L673.147 58.5002L674.573 60.4968L674.949 58.0721L673.96 57.919ZM671.027 57.6867L671.758 58.3692L671.758 58.3692L671.027 57.6867ZM670.802 59.435L671.338 60.2798L672.139 59.7723L671.674 58.9454L670.802 59.435ZM668.856 61.4509L667.995 60.9416L667.856 61.1772V61.4509H668.856ZM672.307 79.2139H673.307V78.2139H672.307V79.2139ZM672.307 80.2289V81.2289H673.307V80.2289H672.307ZM659.315 80.2289H658.315V81.2289H659.315V80.2289ZM659.315 79.2139V78.2139H658.315V79.2139H659.315ZM682.658 57.9998H681.658V58.9998H682.658V57.9998ZM682.658 56.9848V55.9848H681.658V56.9848H682.658ZM691.692 53.5845V52.5845H691.225L690.925 52.9432L691.692 53.5845ZM692.2 53.5845H693.2V52.5845H692.2V53.5845ZM695.651 79.2139H696.651V78.2139H695.651V79.2139ZM695.651 80.2289V81.2289H696.651V80.2289H695.651ZM682.658 80.2289H681.658V81.2289H682.658V80.2289ZM682.658 79.2139V78.2139H681.658V79.2139H682.658ZM708.269 64.5902L707.92 65.5275L707.92 65.5275L708.269 64.5902ZM714.308 63.3795L713.331 63.5937L713.504 64.3795H714.308V63.3795ZM715.323 63.3795V64.3795H716.384L716.322 63.3208L715.323 63.3795ZM714.765 53.889L715.763 53.8303L715.708 52.889H714.765V53.889ZM714.461 53.889V52.889H714.201L713.975 53.0148L714.461 53.889ZM714.004 54.1427L714.483 55.0207L714.489 55.0169L714.004 54.1427ZM708.82 54.5446L708.701 55.5375L708.701 55.5375L708.82 54.5446ZM705.014 69.7824L704.637 70.7086L704.637 70.7086L705.014 69.7824ZM704.107 72.7177L704.525 73.6261L705.767 73.0548L704.847 72.0445L704.107 72.7177ZM662.766 61.1972H661.766V75.8136H662.766H663.766V61.1972H662.766ZM659.569 57.9998V58.9998C660.309 58.9998 660.84 59.239 661.183 59.5824C661.527 59.9258 661.766 60.4568 661.766 61.1972H662.766H663.766C663.766 60.009 663.371 58.9413 662.598 58.1682C661.824 57.3951 660.757 56.9998 659.569 56.9998V57.9998ZM659.315 57.9998V58.9998H659.569V57.9998V56.9998H659.315V57.9998ZM659.315 56.9848H658.315V57.9998H659.315H660.315V56.9848H659.315ZM668.349 53.5845L667.581 52.9432C665.071 55.946 661.08 55.9848 659.315 55.9848V56.9848V57.9848C661.001 57.9848 665.942 58.0236 669.116 54.2258L668.349 53.5845ZM668.856 53.5845V52.5845H668.349V53.5845V54.5845H668.856V53.5845ZM668.856 59.6239H669.856V53.5845H668.856H667.856V59.6239H668.856ZM677.535 54.3457V53.3457C673.608 53.3457 670.356 56.0963 668.07 59.0061L668.856 59.6239L669.642 60.2417C671.822 57.4673 674.558 55.3457 677.535 55.3457V54.3457ZM678.245 62.9735L678.49 63.9431C681.719 63.1286 683.482 60.5825 683.361 58.0787C683.301 56.8315 682.767 55.6259 681.749 54.7397C680.732 53.854 679.3 53.3457 677.535 53.3457V54.3457V55.3457C678.915 55.3457 679.85 55.7383 680.436 56.2483C681.021 56.7577 681.328 57.4426 681.363 58.1747C681.433 59.6295 680.405 61.3973 678 62.0038L678.245 62.9735ZM678.385 62.0214L677.388 61.9383C677.367 62.198 677.326 62.4768 677.265 62.7739L678.245 62.9735L679.225 63.1731C679.299 62.8095 679.352 62.4523 679.381 62.1044L678.385 62.0214ZM678.385 62.0214L678.287 63.0166C678.846 63.0715 679.731 63.0634 680.437 62.517C681.233 61.9003 681.465 60.8861 681.272 59.6843L680.285 59.8424L679.297 60.0006C679.363 60.4114 679.336 60.6523 679.3 60.779C679.269 60.8893 679.231 60.9214 679.212 60.9358C679.133 60.9975 678.907 61.0679 678.483 61.0262L678.385 62.0214ZM680.285 59.8424L681.272 59.6843C681.154 58.9479 680.764 58.4093 680.241 58.0695C679.756 57.7538 679.208 57.6416 678.767 57.6041C678.317 57.5657 677.894 57.5987 677.594 57.6374C677.442 57.6571 677.314 57.6792 677.223 57.6969C677.177 57.7058 677.139 57.7137 677.112 57.7197C677.098 57.7227 677.087 57.7252 677.078 57.7272C677.074 57.7282 677.07 57.7291 677.067 57.7298C677.066 57.7301 677.065 57.7305 677.063 57.7307C677.063 57.7309 677.062 57.731 677.062 57.7311C677.062 57.7312 677.061 57.7313 677.061 57.7313C677.061 57.7314 677.06 57.7315 677.296 58.7034C677.531 59.6753 677.531 59.6754 677.53 59.6754C677.53 59.6755 677.53 59.6755 677.53 59.6756C677.53 59.6756 677.529 59.6757 677.529 59.6758C677.529 59.6759 677.528 59.676 677.528 59.676C677.528 59.6761 677.528 59.6761 677.529 59.6759C677.53 59.6755 677.534 59.6746 677.54 59.6733C677.553 59.6706 677.574 59.6661 677.602 59.6606C677.659 59.6495 677.745 59.6345 677.85 59.6209C678.067 59.593 678.337 59.5747 678.598 59.5969C678.868 59.6199 679.05 59.6804 679.152 59.7465C679.216 59.7883 679.272 59.8404 679.297 60.0006L680.285 59.8424ZM677.296 58.7034C678.259 58.9711 678.259 58.9709 678.259 58.9705C678.259 58.9704 678.259 58.9701 678.26 58.9699C678.26 58.9694 678.26 58.9689 678.26 58.9683C678.26 58.9672 678.261 58.9659 678.261 58.9644C678.262 58.9614 678.263 58.9576 678.264 58.9531C678.267 58.9441 678.27 58.9322 678.273 58.9175C678.281 58.8881 678.291 58.8476 678.303 58.7975C678.326 58.6974 678.356 58.5575 678.385 58.3895C678.442 58.0591 678.501 57.5952 678.489 57.1024C678.477 56.6232 678.397 56.0274 678.107 55.4942C677.792 54.9155 677.25 54.4564 676.461 54.3142L676.284 55.2984L676.106 56.2825C676.25 56.3084 676.301 56.3591 676.35 56.4503C676.425 56.5871 676.481 56.8215 676.489 57.1516C676.497 57.468 676.459 57.7923 676.415 58.0477C676.393 58.1727 676.371 58.2751 676.355 58.3442C676.347 58.3786 676.34 58.4044 676.336 58.4202C676.334 58.428 676.333 58.4334 676.332 58.436C676.332 58.4373 676.332 58.438 676.332 58.4379C676.332 58.4379 676.332 58.4377 676.332 58.4373C676.332 58.4371 676.332 58.4369 676.332 58.4366C676.332 58.4364 676.332 58.4362 676.332 58.4361C676.332 58.4359 676.332 58.4356 677.296 58.7034ZM676.284 55.2984L676.461 54.3142C675.698 54.1767 675.041 54.3838 674.532 54.7672C674.055 55.1266 673.738 55.6157 673.528 56.0363C673.314 56.4658 673.177 56.8946 673.095 57.2059C673.053 57.3641 673.023 57.4981 673.004 57.5949C672.994 57.6434 672.986 57.6829 672.981 57.7118C672.979 57.7263 672.977 57.7382 672.975 57.7472C672.974 57.7518 672.974 57.7556 672.973 57.7587C672.973 57.7602 672.973 57.7616 672.973 57.7628C672.973 57.7634 672.973 57.7639 672.972 57.7644C672.972 57.7647 672.972 57.765 672.972 57.7651C672.972 57.7655 672.972 57.7658 673.96 57.919C674.949 58.0721 674.949 58.0724 674.949 58.0727C674.949 58.0728 674.949 58.073 674.948 58.0732C674.948 58.0735 674.948 58.0738 674.948 58.074C674.948 58.0745 674.948 58.0748 674.948 58.0749C674.948 58.0752 674.948 58.0748 674.948 58.0737C674.949 58.0716 674.95 58.0669 674.951 58.0598C674.953 58.0456 674.958 58.0219 674.964 57.9903C674.977 57.9266 674.998 57.8323 675.028 57.7185C675.089 57.4859 675.184 57.1965 675.318 56.9288C675.456 56.6522 675.602 56.4651 675.736 56.3647C675.837 56.2882 675.937 56.2519 676.106 56.2825L676.284 55.2984ZM673.96 57.919C674.774 57.3377 674.774 57.3373 674.774 57.3369C674.774 57.3368 674.773 57.3364 674.773 57.3361C674.773 57.3355 674.772 57.3349 674.772 57.3343C674.771 57.333 674.77 57.3317 674.769 57.3301C674.767 57.3271 674.764 57.3237 674.761 57.3197C674.755 57.3119 674.748 57.3022 674.739 57.2908C674.722 57.2681 674.699 57.2386 674.67 57.2039C674.613 57.1347 674.533 57.0427 674.431 56.9405C674.232 56.7415 673.926 56.4768 673.528 56.2783C673.124 56.0765 672.592 55.9287 671.986 56.0277C671.374 56.1276 670.805 56.4592 670.297 57.0041L671.027 57.6867L671.758 58.3692C672.033 58.0746 672.223 58.0155 672.308 58.0016C672.399 57.9868 672.503 58.0019 672.636 58.0681C672.775 58.1376 672.908 58.2457 673.014 58.3526C673.065 58.4033 673.103 58.4475 673.127 58.4763C673.139 58.4906 673.147 58.5005 673.15 58.505C673.152 58.5072 673.152 58.5081 673.152 58.5073C673.152 58.5069 673.151 58.5062 673.15 58.505C673.15 58.5044 673.149 58.5037 673.149 58.5029C673.148 58.5025 673.148 58.5021 673.148 58.5016C673.148 58.5014 673.147 58.5011 673.147 58.5009C673.147 58.5006 673.147 58.5002 673.96 57.919ZM671.027 57.6867L670.297 57.0041C669.871 57.4603 669.627 57.9823 669.591 58.5413C669.557 59.0839 669.724 59.5574 669.93 59.9247L670.802 59.435L671.674 58.9454C671.596 58.8058 671.584 58.7175 671.587 58.6689C671.589 58.6366 671.601 58.5378 671.758 58.3692L671.027 57.6867ZM668.856 61.4509L669.717 61.9602C670.161 61.2102 670.722 60.6697 671.338 60.2798L670.802 59.435L670.267 58.5903C669.4 59.1397 668.609 59.9046 667.995 60.9416L668.856 61.4509ZM668.856 75.8136H669.856V61.4509H668.856H667.856V75.8136H668.856ZM672.256 79.2139V78.2139C671.472 78.2139 670.888 77.9534 670.502 77.5679C670.117 77.1824 669.856 76.5982 669.856 75.8136H668.856H667.856C667.856 77.059 668.281 78.175 669.088 78.9821C669.895 79.7892 671.011 80.2139 672.256 80.2139V79.2139ZM672.307 79.2139V78.2139H672.256V79.2139V80.2139H672.307V79.2139ZM672.307 80.2289H673.307V79.2139H672.307H671.307V80.2289H672.307ZM659.315 80.2289V81.2289H672.307V80.2289V79.2289H659.315V80.2289ZM659.315 79.2139H658.315V80.2289H659.315H660.315V79.2139H659.315ZM659.366 79.2139V78.2139H659.315V79.2139V80.2139H659.366V79.2139ZM662.766 75.8136H661.766C661.766 76.5982 661.505 77.1824 661.12 77.5679C660.734 77.9534 660.15 78.2139 659.366 78.2139V79.2139V80.2139C660.611 80.2139 661.727 79.7892 662.534 78.9821C663.341 78.175 663.766 77.059 663.766 75.8136H662.766ZM686.11 61.1972H685.11V75.8136H686.11H687.11V61.1972H686.11ZM682.912 57.9998V58.9998C683.653 58.9998 684.184 59.239 684.527 59.5824C684.87 59.9258 685.11 60.4568 685.11 61.1972H686.11H687.11C687.11 60.009 686.714 58.9413 685.941 58.1682C685.168 57.3951 684.1 56.9998 682.912 56.9998V57.9998ZM682.658 57.9998V58.9998H682.912V57.9998V56.9998H682.658V57.9998ZM682.658 56.9848H681.658V57.9998H682.658H683.658V56.9848H682.658ZM691.692 53.5845L690.925 52.9432C688.415 55.946 684.423 55.9848 682.658 55.9848V56.9848V57.9848C684.345 57.9848 689.285 58.0236 692.459 54.2258L691.692 53.5845ZM692.2 53.5845V52.5845H691.692V53.5845V54.5845H692.2V53.5845ZM692.2 75.8136H693.2V53.5845H692.2H691.2V75.8136H692.2ZM695.6 79.2139V78.2139C694.815 78.2139 694.231 77.9534 693.846 77.5679C693.46 77.1824 693.2 76.5982 693.2 75.8136H692.2H691.2C691.2 77.059 691.624 78.175 692.432 78.9821C693.239 79.7892 694.355 80.2139 695.6 80.2139V79.2139ZM695.651 79.2139V78.2139H695.6V79.2139V80.2139H695.651V79.2139ZM695.651 80.2289H696.651V79.2139H695.651H694.651V80.2289H695.651ZM682.658 80.2289V81.2289H695.651V80.2289V79.2289H682.658V80.2289ZM682.658 79.2139H681.658V80.2289H682.658H683.658V79.2139H682.658ZM682.709 79.2139V78.2139H682.658V79.2139V80.2139H682.709V79.2139ZM686.11 75.8136H685.11C685.11 76.5982 684.849 77.1824 684.464 77.5679C684.078 77.9534 683.494 78.2139 682.709 78.2139V79.2139V80.2139C683.955 80.2139 685.071 79.7892 685.878 78.9821C686.685 78.175 687.11 77.059 687.11 75.8136H686.11ZM706.696 80.7364V79.7364C704.573 79.7364 702.221 79.3792 700.44 78.5433C698.676 77.7154 697.647 76.5231 697.647 74.8493H696.647H695.647C695.647 77.5909 697.434 79.3421 699.591 80.3539C701.73 81.3578 704.402 81.7364 706.696 81.7364V80.7364ZM717.404 73.5805H716.404C716.404 75.8321 715.118 77.3328 713.191 78.3248C711.232 79.3334 708.725 79.7364 706.696 79.7364V80.7364V81.7364C708.929 81.7364 711.777 81.3021 714.106 80.103C716.468 78.8873 718.404 76.81 718.404 73.5805H717.404ZM708.269 64.5902L707.92 65.5275C710.108 66.3405 712.238 67.1412 713.84 68.379C715.378 69.567 716.404 71.1377 716.404 73.5805H717.404H718.404C718.404 70.4284 717.016 68.3044 715.063 66.7962C713.175 65.3378 710.737 64.4407 708.617 63.6528L708.269 64.5902ZM701.671 59.2179H700.671C700.671 61.1258 701.731 62.4179 703.112 63.3458C704.447 64.2427 706.222 64.8963 707.92 65.5275L708.269 64.5902L708.617 63.6528C706.848 62.9952 705.324 62.4226 704.227 61.6857C703.176 60.9797 702.671 60.23 702.671 59.2179H701.671ZM706.239 55.3608V54.3608C704.941 54.3608 703.58 54.7411 702.518 55.5377C701.43 56.3534 700.671 57.602 700.671 59.2179H701.671H702.671C702.671 58.2962 703.08 57.6162 703.718 57.1377C704.381 56.6402 705.303 56.3608 706.239 56.3608V55.3608ZM714.308 63.3795L715.285 63.1653C714.618 60.1213 713.38 57.9104 711.76 56.4564C710.133 54.9961 708.189 54.3608 706.239 54.3608V55.3608V56.3608C707.74 56.3608 709.196 56.8419 710.424 57.9446C711.659 59.0535 712.73 60.852 713.331 63.5937L714.308 63.3795ZM715.323 63.3795V62.3795H714.308V63.3795V64.3795H715.323V63.3795ZM714.765 53.889L713.767 53.9477L714.325 63.4382L715.323 63.3795L716.322 63.3208L715.763 53.8303L714.765 53.889ZM714.461 53.889V54.889H714.765V53.889V52.889H714.461V53.889ZM714.004 54.1427L714.489 55.0169L714.946 54.7631L714.461 53.889L713.975 53.0148L713.518 53.2686L714.004 54.1427ZM708.82 54.5446L708.701 55.5375C710.451 55.746 712.618 56.038 714.483 55.0206L714.004 54.1427L713.525 53.2648C712.322 53.9208 710.846 53.7789 708.938 53.5516L708.82 54.5446ZM706.34 54.3457V55.3457C707.081 55.3457 707.856 55.4368 708.701 55.5375L708.82 54.5446L708.938 53.5516C708.116 53.4536 707.221 53.3457 706.34 53.3457V54.3457ZM696.698 61.3494H697.698C697.698 59.4525 698.626 57.993 700.169 56.9677C701.742 55.923 703.946 55.3457 706.34 55.3457V54.3457V53.3457C703.66 53.3457 701.042 53.9865 699.062 55.3018C697.053 56.6363 695.698 58.6787 695.698 61.3494H696.698ZM705.014 69.7824L705.392 68.8563C703.354 68.0264 701.422 67.2313 699.98 66.0677C698.599 64.9531 697.698 63.5239 697.698 61.3494H696.698H695.698C695.698 64.2211 696.95 66.1921 698.724 67.6242C700.439 69.0074 702.666 69.9057 704.637 70.7086L705.014 69.7824ZM711.771 75.8643H712.771C712.771 73.7935 711.723 72.3589 710.296 71.3035C708.922 70.287 707.102 69.553 705.392 68.8563L705.014 69.7824L704.637 70.7086C706.417 71.4335 707.976 72.0751 709.107 72.9115C710.185 73.709 710.771 74.6046 710.771 75.8643H711.771ZM707.051 79.7214V80.7214C708.699 80.7214 710.132 80.317 711.171 79.4581C712.234 78.5791 712.771 77.3173 712.771 75.8643H711.771H710.771C710.771 76.7967 710.445 77.4634 709.896 77.9167C709.324 78.39 708.397 78.7214 707.051 78.7214V79.7214ZM704.107 72.7177L703.689 71.8094C701.529 72.8039 700.93 75.1461 701.565 77.0831C702.217 79.0718 704.144 80.7214 707.051 80.7214V79.7214V78.7214C704.984 78.7214 703.841 77.6051 703.465 76.4599C703.073 75.263 703.489 74.1034 704.525 73.6261L704.107 72.7177ZM696.647 74.8493H697.647C697.647 72.5588 700.857 70.6336 703.368 73.391L704.107 72.7177L704.847 72.0445C701.165 68.0012 695.647 70.6436 695.647 74.8493H696.647Z" fill="#FFF8F9" mask="url(#path-18-outside-2_22_274)"/>
<path d="M618.46 46.6062L623.852 41.531C623.852 41.531 625.601 43.8349 626.39 46.289C627.3 49.1218 627.413 51.742 626.39 54.5361C625.798 56.152 624.487 57.708 624.487 57.708L621.949 56.122L618.46 46.6062Z" fill="#FFDBE6" stroke="#FFD4E1"/>
<path d="M632.099 34.8699C628.583 36.7047 623.852 41.531 623.852 41.531C623.852 41.531 631.134 38.5071 635.271 36.1387C637.836 34.6707 641.615 32.0151 641.615 32.0151C641.615 32.0151 635.539 33.0749 632.099 34.8699Z" fill="#FFE4E4" stroke="#FFE6E6"/>
<path d="M646.588 31.3807C646.588 31.3807 645.698 25.1141 647.54 21.8649C649.011 19.2694 653.249 16.7897 653.249 16.7897M647.54 31.3807C647.54 31.3807 647.897 26.5719 649.76 24.4024C650.858 23.1243 653.249 21.8649 653.249 21.8649" stroke="#FFCECE"/>
<path d="M624.17 92.5996C625.808 85.311 638.443 80.5461 638.443 80.5461C638.443 80.5461 632.582 87.7332 631.148 93.5512C629.603 99.8157 634.003 110.363 634.003 110.363C634.003 110.363 622.528 99.9011 624.17 92.5996Z" fill="#FFB9B9" stroke="#FFB3B3"/>
<path d="M641.298 108.777C641.298 108.777 640.981 119.561 639.712 119.561C638.443 119.561 631.465 105.922 631.465 105.922C631.465 105.922 629.982 100.473 631.465 94.1855C632.918 88.0238 639.712 79.9117 639.712 79.9117C639.712 79.9117 636.671 89.2799 637.174 95.4543C637.681 101.668 641.298 108.777 641.298 108.777Z" fill="#FFD4DC" stroke="#FFCED7"/>
<path d="M637.175 96.4059C635.069 90.0884 639.395 80.2289 639.395 80.2289L641.932 80.5461C641.932 80.5461 641.832 92.7391 645.422 99.8951C649.074 107.177 660.33 114.486 660.33 114.486C660.33 114.486 654.953 116.435 651.448 116.072C642.009 115.093 640.029 104.97 637.175 96.4059Z" fill="white" stroke="white"/>
<path d="M642.567 90.062C643.236 95.3478 646.69 101.798 646.69 101.798C646.69 101.798 645.933 94.6549 646.69 93.234C649.228 88.476 654.591 89.255 655.572 84.3525C657.158 76.4226 657.792 71.3474 657.792 71.3474C657.792 71.3474 653.775 75.9639 651.131 77.6914C648.111 79.6645 642.567 80.5461 642.567 80.5461C642.567 80.5461 642.1 86.3753 642.567 90.062Z" fill="#FFCAD6" stroke="#FFD0DA"/>
<path d="M653.378 17.5109C653.715 17.8932 654.192 17.3518 654.192 17.3518C654.192 17.3518 654.525 18.1658 655.018 17.8317C655.405 17.5702 654.967 16.8734 654.967 16.8734C654.967 16.8734 655.93 17.0937 655.681 16.2647C655.544 15.8069 654.862 16.0717 654.862 16.0717C654.862 16.0717 654.978 15.2414 654.479 15.2187C653.981 15.1959 653.965 15.9832 653.965 15.9832C653.965 15.9832 653.542 15.5322 653.191 16.0248C652.879 16.4646 653.551 16.7605 653.551 16.7605C653.551 16.7605 653.075 17.1663 653.378 17.5109Z" fill="#FFCDD8" stroke="#FFCDD8"/>
<path d="M653.378 22.586C653.715 22.9684 654.192 22.427 654.192 22.427C654.192 22.427 654.525 23.241 655.018 22.9069C655.405 22.6454 654.967 21.9485 654.967 21.9485C654.967 21.9485 655.93 22.1689 655.681 21.3398C655.544 20.882 654.862 21.1468 654.862 21.1468C654.862 21.1468 654.978 20.3166 654.479 20.2938C653.981 20.271 653.965 21.0584 653.965 21.0584C653.965 21.0584 653.542 20.6073 653.191 21.0999C652.879 21.5397 653.551 21.8356 653.551 21.8356C653.551 21.8356 653.075 22.2414 653.378 22.586Z" fill="#FFCDD8" stroke="#FFCDD8"/>
<path d="M786.846 149.701L785.992 149.494L793.2 137.677L794.377 137.962L795.349 151.764L794.419 151.539L794.185 147.864L788.757 146.547L786.846 149.701ZM792.396 140.496L789.127 145.933L794.138 147.149L793.724 140.819C793.714 140.642 793.695 140.302 793.67 139.8C793.631 139.134 793.607 138.68 793.599 138.437C793.48 138.649 793.251 139.042 792.911 139.616C792.658 140.051 792.486 140.344 792.396 140.496Z" fill="#FFF8F9"/>
<path d="M800.03 151.536L799.249 151.563L798.916 141.803L799.638 141.778L799.716 143.476C799.788 143.291 799.873 143.112 799.971 142.939C800.501 142.048 801.215 141.588 802.113 141.557C802.334 141.549 802.563 141.581 802.8 141.651L802.725 142.337C802.476 142.281 802.254 142.256 802.058 142.262C801.59 142.278 801.166 142.456 800.787 142.794C800.105 143.443 799.787 144.411 799.831 145.7L800.03 151.536Z" fill="#FFF8F9"/>
<path d="M810.849 149.369C810.415 149.775 809.972 150.042 809.521 150.171C809.243 150.241 808.972 150.257 808.706 150.217C807.841 150.088 807.26 149.443 806.964 148.282L805.297 141.733L803.669 142.148L803.501 141.485L805.128 141.071L804.478 138.515L805.235 138.323L805.885 140.878L808.289 140.266L808.458 140.928L806.054 141.54L807.664 147.862C807.696 147.988 807.736 148.119 807.784 148.255C808.135 149.267 808.709 149.672 809.504 149.47C809.807 149.392 810.128 149.203 810.468 148.902L810.849 149.369Z" fill="#FFF8F9"/>
<path d="M819.746 144.697C819.092 145.569 818.385 146.218 817.624 146.645C816.937 147.017 816.24 147.179 815.534 147.132C814.016 147.036 812.742 146.038 811.713 144.137C811.149 143.095 810.852 142.094 810.82 141.133C810.785 139.672 811.356 138.622 812.536 137.984C812.719 137.885 812.909 137.797 813.104 137.721C814.844 137.105 816.37 138.011 817.684 140.438L817.87 140.782L812.443 143.72L812.461 143.754C812.895 144.556 813.396 145.18 813.964 145.628C815.047 146.507 816.196 146.619 817.41 145.962C818.074 145.602 818.682 145.043 819.234 144.286L819.746 144.697ZM812.861 138.585C812.541 138.759 812.271 138.986 812.053 139.267C811.384 140.191 811.411 141.472 812.134 143.109L816.814 140.554C816.573 140.107 816.303 139.705 816.006 139.348C815.02 138.238 813.972 137.984 812.861 138.585Z" fill="#FFF8F9"/>
<path d="M825.054 137.332C825.477 137.775 825.714 138.278 825.765 138.841C825.837 139.708 825.52 140.479 824.813 141.153C824.088 141.845 823.194 142.267 822.131 142.417L821.954 141.722C822.962 141.552 823.767 141.189 824.369 140.632C824.605 140.407 824.781 140.14 824.899 139.829C825.183 139.108 825.047 138.456 824.489 137.872C824.202 137.57 823.856 137.387 823.452 137.322C823.021 137.266 822.327 137.388 821.372 137.688C820.889 137.843 820.532 137.949 820.3 138.008C819.208 138.241 818.343 138.022 817.705 137.354C817.336 136.967 817.126 136.511 817.074 135.985C817.019 135.155 817.341 134.407 818.038 133.742C818.142 133.643 818.25 133.549 818.362 133.459C819.196 132.844 820.062 132.675 820.958 132.954L820.72 133.667C820.647 133.647 820.573 133.626 820.5 133.606C819.757 133.469 819.08 133.693 818.468 134.277C818.26 134.475 818.098 134.701 817.982 134.956C817.662 135.658 817.758 136.277 818.27 136.814C818.54 137.097 818.863 137.266 819.239 137.32C819.661 137.386 820.35 137.268 821.305 136.968C821.788 136.814 822.15 136.712 822.39 136.662C823.51 136.421 824.398 136.645 825.054 137.332Z" fill="#FFF8F9"/>
<path d="M832.663 130.469C832.596 130.581 832.523 130.689 832.444 130.794C831.999 131.331 831.387 131.425 830.608 131.077C830.668 131.204 830.721 131.343 830.768 131.493C831.056 132.427 830.961 133.29 830.483 134.081C830.254 134.46 829.984 134.769 829.673 135.007C828.776 135.712 827.737 135.709 826.555 134.996C826.12 134.733 825.796 134.363 825.583 133.884C825.153 132.834 825.375 131.584 826.249 130.134C826.545 129.644 826.815 129.259 827.06 128.981L825.672 128.143C825.449 128.009 825.229 127.907 825.013 127.837C824.067 127.54 823.314 127.854 822.756 128.779C822.325 129.492 822.123 130.382 822.149 131.447L821.433 131.425C821.404 130.313 821.654 129.307 822.181 128.409C822.409 128.03 822.683 127.716 823 127.466C823.902 126.779 824.91 126.771 826.025 127.444L830.39 130.078C830.646 130.233 830.868 130.344 831.055 130.412C831.555 130.591 831.939 130.458 832.209 130.013C832.269 129.912 832.317 129.82 832.353 129.735L832.892 130.014C832.813 130.195 832.737 130.347 832.663 130.469ZM829.968 133.611C830.157 133.299 830.263 132.922 830.286 132.48C830.342 131.479 829.947 130.724 829.1 130.212L827.611 129.314C827.354 129.615 827.077 130.01 826.781 130.501C826.714 130.612 826.646 130.724 826.579 130.835C825.715 132.443 825.852 133.59 826.989 134.276C827.078 134.33 827.176 134.382 827.283 134.431C828.407 134.988 829.302 134.715 829.968 133.611Z" fill="#FFF8F9"/>
<path d="M835.41 118.942L836.007 119.051C835.991 119.221 835.97 119.357 835.945 119.458C835.923 119.547 835.894 119.633 835.859 119.719C835.588 120.375 834.94 120.576 833.917 120.319L829.086 119.109C828.694 119.01 828.323 118.964 827.973 118.971C826.905 118.998 826.248 119.505 826.001 120.49C825.887 120.945 825.919 121.409 826.095 121.883C826.486 122.894 827.395 123.578 828.823 123.935L834.336 125.317L834.146 126.075L824.673 123.701L824.849 123L826.578 123.413C825.489 122.563 825.091 121.524 825.386 120.295C825.484 119.904 825.629 119.564 825.822 119.277C826.495 118.251 827.609 117.933 829.162 118.322L833.993 119.533C834.296 119.609 834.541 119.65 834.727 119.656C835.119 119.647 835.346 119.409 835.41 118.942Z" fill="#FFF8F9"/>
<path d="M835.773 108.816C835.78 108.946 835.78 109.076 835.774 109.207C835.706 109.902 835.252 110.323 834.412 110.471C834.533 110.543 834.655 110.628 834.777 110.726C835.539 111.338 835.944 112.106 835.992 113.029C836.015 113.471 835.965 113.878 835.84 114.25C835.493 115.337 834.63 115.916 833.251 115.988C832.744 116.014 832.268 115.889 831.824 115.612C830.878 114.983 830.362 113.824 830.274 112.133C830.244 111.561 830.252 111.091 830.298 110.724L828.68 110.808C828.419 110.821 828.18 110.86 827.962 110.924C827.012 111.208 826.565 111.889 826.621 112.969C826.664 113.801 826.995 114.651 827.614 115.518L827.008 115.902C826.361 114.996 826.004 114.024 825.937 112.985C825.914 112.542 825.964 112.129 826.088 111.745C826.449 110.67 827.28 110.098 828.58 110.031L833.671 109.766C833.97 109.751 834.216 109.718 834.409 109.669C834.924 109.538 835.168 109.213 835.141 108.692C835.135 108.575 835.123 108.472 835.105 108.381L835.708 108.311C835.744 108.505 835.766 108.673 835.773 108.816ZM835.302 112.928C835.283 112.564 835.16 112.192 834.932 111.813C834.417 110.953 833.666 110.549 832.678 110.6L830.942 110.69C830.897 111.084 830.89 111.567 830.92 112.139C830.926 112.269 830.933 112.399 830.94 112.529C831.126 114.345 831.881 115.218 833.208 115.149C833.312 115.144 833.422 115.131 833.538 115.112C834.781 114.943 835.369 114.215 835.302 112.928Z" fill="#FFF8F9"/>
<path d="M833.068 100.917C833.495 101.331 833.784 101.76 833.934 102.204C834.019 102.478 834.047 102.748 834.021 103.015C833.935 103.886 833.319 104.498 832.174 104.851L825.716 106.84L826.21 108.445L825.557 108.646L825.063 107.041L822.543 107.817L822.313 107.071L824.833 106.294L824.103 103.924L824.756 103.723L825.486 106.093L831.72 104.173C831.845 104.135 831.974 104.088 832.107 104.034C833.1 103.632 833.476 103.04 833.235 102.256C833.143 101.957 832.938 101.646 832.62 101.321L833.068 100.917Z" fill="#FFF8F9"/>
<path d="M829.494 94.7682C829.163 94.2381 828.724 93.8673 828.178 93.656C827.056 93.236 825.733 93.5019 824.209 94.4538C823.458 94.9228 822.86 95.4415 822.417 96.01C821.542 97.1401 821.439 98.2408 822.108 99.3121C822.466 99.8863 822.962 100.275 823.596 100.478C824.727 100.815 826.011 100.536 827.447 99.6389C828.176 99.1837 828.756 98.6753 829.188 98.1137C830.075 96.9767 830.177 95.8615 829.494 94.7682ZM821.517 99.6576C821.09 98.9729 820.897 98.2717 820.941 97.554C821.022 96.1365 821.963 94.8657 823.764 93.7414C824.736 93.1345 825.689 92.7925 826.623 92.7155C828.137 92.5835 829.291 93.1526 830.084 94.4226C830.477 95.0522 830.684 95.6906 830.704 96.3379C830.729 97.8271 829.791 99.1649 827.892 100.351C826.876 100.986 825.87 101.33 824.875 101.383C823.395 101.448 822.276 100.872 821.517 99.6576Z" fill="#FFF8F9"/>
<path d="M624.17 81.8149C620.847 86.3523 621.949 86.8901 624.17 95.1371C624.995 98.2031 624.459 90.8396 627.024 87.5244C630.08 83.575 638.761 79.9117 638.761 79.9117L633.685 78.3258C633.685 78.3258 626.947 78.0223 624.17 81.8149Z" fill="#FFD5E2" stroke="#FFDAE5"/>
</svg>
